<?xml version="1.0" encoding="UTF-8" standalone="no"?>
<svg
   xmlns:dc="http://purl.org/dc/elements/1.1/"
   xmlns:cc="http://creativecommons.org/ns#"
   xmlns:rdf="http://www.w3.org/1999/02/22-rdf-syntax-ns#"
   xmlns:svg="http://www.w3.org/2000/svg"
   xmlns="http://www.w3.org/2000/svg"
   xmlns:sodipodi="http://sodipodi.sourceforge.net/DTD/sodipodi-0.dtd"
   xmlns:inkscape="http://www.inkscape.org/namespaces/inkscape"
   version="1.0"
   width="2416.000000pt"
   height="1664.000000pt"
   viewBox="0 0 2416.000000 1664.000000"
   preserveAspectRatio="xMidYMid meet"
   id="svg3220"
   sodipodi:docname="Astrolabe__PSF_.svg"
   inkscape:version="1.0.1 (3bc2e813f5, 2020-09-07)">
  <metadata
     id="metadata3226">
    <rdf:RDF>
      <cc:Work
         rdf:about="">
        <dc:format>image/svg+xml</dc:format>
        <dc:type
           rdf:resource="http://purl.org/dc/dcmitype/StillImage" />
        <dc:title></dc:title>
      </cc:Work>
    </rdf:RDF>
  </metadata>
  <defs
     id="defs3224" />
  <sodipodi:namedview
     pagecolor="#ffffff"
     bordercolor="#666666"
     borderopacity="1"
     objecttolerance="10"
     gridtolerance="10"
     guidetolerance="10"
     inkscape:pageopacity="0"
     inkscape:pageshadow="2"
     inkscape:window-width="1902"
     inkscape:window-height="896"
     id="namedview3222"
     showgrid="false"
     inkscape:zoom="0.18704928"
     inkscape:cx="2696.6643"
     inkscape:cy="963.17253"
     inkscape:window-x="0"
     inkscape:window-y="0"
     inkscape:window-maximized="0"
     inkscape:current-layer="g3218" />
  <g
     transform="matrix(0.1,0,0,-0.1,0,1664)"
     fill="#000000"
     stroke="none"
     id="g3218">
    <path
       d="m 6957,16473 c -39,-19 -53,-33 -69,-70 -11,-25 -39,-70 -62,-99 -22,-28 -62,-81 -88,-117 -44,-60 -52,-66 -92,-72 -33,-5 -53,-16 -75,-41 -19,-20 -49,-39 -79,-47 -26,-8 -77,-33 -112,-56 -125,-78 -139,-84 -194,-76 -121,16 -162,-3 -286,-127 -88,-89 -90,-91 -90,-139 0,-83 -53,-211 -118,-285 -20,-23 -46,-57 -57,-75 -11,-18 -31,-39 -45,-45 -14,-7 -68,-33 -121,-59 -132,-63 -167,-92 -249,-201 -93,-124 -108,-151 -135,-238 -20,-64 -22,-85 -16,-177 4,-57 13,-114 19,-126 7,-12 12,-32 12,-44 0,-12 13,-43 29,-69 51,-82 54,-109 20,-181 -17,-35 -46,-110 -65,-168 -35,-102 -36,-108 -24,-171 8,-50 8,-73 0,-95 -8,-19 -11,-84 -9,-175 2,-164 2,-173 -4,-290 -3,-57 1,-101 11,-134 10,-33 12,-63 7,-95 -17,-101 -11,-161 27,-248 20,-46 46,-95 57,-109 12,-15 21,-33 21,-41 0,-7 17,-42 38,-76 22,-34 52,-102 67,-150 l 29,-88 -13,-117 c -8,-64 -16,-154 -20,-200 -6,-83 -15,-101 -51,-102 -14,0 -131,-58 -370,-184 -61,-32 -128,-76 -148,-96 -21,-21 -54,-45 -75,-54 -35,-14 -113,-69 -264,-184 -34,-26 -67,-60 -74,-75 -7,-16 -30,-40 -52,-54 -43,-27 -327,-310 -327,-325 0,-6 -21,-32 -47,-58 -105,-106 -123,-128 -172,-195 -27,-38 -65,-90 -83,-114 -32,-42 -94,-144 -139,-226 -12,-22 -31,-53 -43,-70 -37,-50 -113,-178 -129,-215 -8,-19 -36,-79 -61,-133 -73,-151 -125,-284 -152,-379 -13,-48 -30,-98 -38,-110 -8,-13 -26,-68 -41,-123 -15,-55 -36,-129 -46,-165 -41,-146 -92,-425 -88,-484 2,-23 -3,-60 -9,-83 -7,-23 -12,-71 -11,-105 1,-84 -5,-160 -20,-234 -11,-58 -10,-100 4,-314 7,-103 35,-352 41,-362 9,-14 34,-175 34,-216 0,-24 9,-64 19,-90 11,-26 27,-79 35,-118 9,-40 25,-93 36,-119 11,-26 20,-58 20,-71 0,-14 9,-43 19,-65 11,-21 22,-57 26,-79 4,-22 11,-42 15,-45 5,-3 14,-30 20,-60 7,-32 23,-69 41,-91 18,-23 27,-44 24,-53 -14,-34 -8,-54 26,-97 18,-22 41,-59 52,-84 11,-25 26,-53 35,-62 8,-10 16,-31 18,-47 2,-16 14,-40 27,-53 13,-13 32,-46 42,-73 10,-28 26,-59 35,-70 9,-11 23,-36 31,-55 12,-31 45,-89 89,-157 8,-13 20,-23 26,-23 7,0 26,-30 43,-67 18,-37 46,-85 64,-107 18,-23 39,-54 47,-70 18,-36 172,-206 199,-221 24,-13 91,-89 91,-104 0,-6 23,-36 51,-67 l 52,-57 -7,-86 c -10,-129 -7,-179 14,-219 10,-20 28,-73 40,-117 34,-130 50,-175 100,-277 27,-53 56,-120 65,-149 10,-28 46,-106 80,-173 66,-126 83,-175 89,-250 2,-25 19,-103 39,-173 19,-70 41,-157 47,-193 6,-36 17,-71 23,-79 6,-7 16,-28 23,-46 21,-64 141,-229 185,-255 34,-21 355,-344 430,-434 13,-15 68,-76 121,-135 53,-58 107,-121 120,-140 18,-25 39,-39 93,-57 39,-14 72,-30 74,-37 7,-19 62,-68 125,-112 109,-75 163,-123 221,-202 137,-181 172,-212 260,-229 21,-4 61,-24 89,-46 80,-61 122,-39 72,38 -31,48 -38,56 -152,180 -51,54 -110,122 -132,149 -94,117 -151,166 -237,206 -36,17 -90,64 -193,169 -145,146 -178,190 -168,217 10,25 -21,71 -96,142 -45,41 -61,71 -38,71 5,0 18,10 29,21 l 20,22 48,-39 c 26,-21 75,-68 109,-104 47,-49 66,-62 74,-54 43,43 -240,280 -385,323 -22,7 -49,16 -60,21 -11,4 -58,22 -105,40 -47,17 -110,46 -140,65 -30,18 -83,47 -117,64 -72,36 -99,69 -106,131 -3,25 -12,72 -20,105 -8,33 -20,98 -27,145 -16,109 -29,168 -47,203 -11,22 -42,201 -43,250 0,15 -29,6 -43,-14 -14,-20 -15,-19 -36,14 -11,19 -36,77 -56,130 -19,53 -52,131 -73,174 -37,75 -106,261 -151,409 -49,161 -69,481 -36,561 9,20 15,66 15,108 0,41 5,108 11,150 7,56 7,113 -1,205 -9,107 -9,151 4,257 8,70 16,166 17,213 3,120 25,273 51,344 13,34 34,95 48,136 33,98 55,111 190,118 54,2 110,2 124,-2 33,-8 93,-61 112,-99 14,-27 14,-33 -5,-78 -13,-29 -25,-88 -30,-144 -5,-52 -12,-99 -16,-105 -18,-29 -90,-51 -198,-61 -61,-6 -113,-12 -115,-14 -6,-5 129,-19 193,-19 42,-1 72,5 99,20 64,33 74,56 82,172 4,56 11,102 16,102 13,0 15,-12 34,-215 20,-204 23,-369 10,-505 -7,-76 -5,-100 23,-221 21,-94 32,-173 35,-258 4,-99 10,-133 31,-184 l 25,-62 -21,-28 c -19,-26 -19,-30 -5,-80 60,-210 94,-488 71,-571 -6,-22 -4,-31 9,-38 31,-17 45,-65 50,-163 4,-94 21,-145 47,-145 26,0 49,23 58,58 14,53 7,215 -13,297 -9,39 -24,117 -32,175 -9,58 -20,128 -24,155 -4,28 -13,86 -18,130 -6,44 -18,103 -26,130 -29,94 -31,184 -6,261 30,93 39,108 117,192 69,72 69,72 121,72 77,0 186,-27 273,-68 71,-33 77,-38 87,-76 6,-23 27,-101 47,-175 20,-74 34,-140 31,-147 -3,-7 1,-34 9,-61 43,-149 57,-210 75,-323 11,-69 25,-150 31,-180 19,-95 105,-187 126,-135 3,9 -7,62 -21,118 -15,56 -35,145 -46,197 -10,52 -28,138 -40,190 -12,52 -26,125 -30,161 -5,37 -13,75 -19,85 -10,20 -45,167 -57,241 -6,41 -6,42 32,60 23,10 55,40 79,72 l 40,54 70,-7 c 38,-3 105,-17 147,-30 42,-13 96,-27 120,-31 24,-4 50,-11 59,-15 18,-10 69,-111 69,-137 0,-41 43,-162 89,-253 27,-53 57,-121 66,-151 36,-119 100,-234 161,-290 63,-57 171,-102 200,-82 11,8 24,51 27,92 2,19 -5,26 -38,36 -98,30 -174,74 -204,116 -17,23 -31,46 -31,51 0,6 -9,22 -19,37 -11,15 -23,45 -27,66 -9,51 -60,200 -78,228 -8,12 -21,49 -31,82 -9,33 -23,72 -31,87 -31,59 -17,76 126,148 l 63,32 161,-5 c 203,-5 248,-18 299,-83 24,-31 40,-64 47,-103 24,-120 52,-214 85,-283 19,-40 35,-78 35,-85 0,-12 78,-159 121,-226 13,-21 45,-64 71,-95 110,-131 196,-241 234,-297 55,-81 161,-255 170,-280 4,-11 47,-78 94,-150 102,-152 167,-285 180,-370 6,-33 15,-82 20,-110 6,-27 15,-96 22,-152 10,-92 10,-104 -5,-121 -21,-23 -22,-46 -2,-75 16,-24 34,-135 35,-205 0,-47 40,-136 95,-212 18,-25 51,-81 74,-125 23,-44 45,-87 50,-95 5,-8 19,-40 31,-70 12,-30 28,-62 36,-71 8,-8 14,-21 14,-28 0,-7 29,-72 64,-145 52,-110 71,-139 112,-174 27,-23 52,-42 57,-42 24,0 -12,94 -69,180 -14,20 -40,75 -60,121 -19,46 -73,161 -120,254 -104,209 -127,296 -143,535 -37,542 -29,485 -76,585 -24,50 -77,148 -118,220 -41,71 -72,136 -69,143 7,19 95,58 152,67 25,4 57,14 72,21 15,8 38,14 52,14 14,0 67,22 119,50 52,27 130,63 173,80 119,47 376,178 505,257 192,118 225,141 243,167 9,14 22,26 30,26 45,0 307,229 616,541 99,100 191,215 222,279 6,14 37,57 68,95 79,98 91,117 150,230 29,55 66,115 81,133 16,18 29,40 29,48 0,15 56,124 90,174 10,14 25,50 35,80 9,30 28,71 41,91 14,20 29,49 34,65 5,16 22,62 39,103 17,40 31,81 31,90 0,9 13,43 30,76 16,33 30,70 30,83 0,13 9,44 19,70 10,26 26,83 36,127 9,44 23,98 30,120 13,36 24,95 70,365 8,47 20,132 27,190 17,138 17,650 0,790 -7,58 -17,148 -24,200 -6,52 -14,111 -19,130 -20,86 -31,128 -46,170 -8,25 -19,75 -23,112 -5,37 -14,77 -21,89 -17,32 -57,153 -79,238 -10,40 -26,89 -35,107 -9,19 -20,58 -25,88 -10,63 -34,123 -60,151 -10,11 -27,45 -38,75 -19,56 -53,115 -107,188 -52,71 -102,156 -109,187 -8,31 -74,135 -86,135 -4,0 -12,12 -19,26 -11,25 -39,62 -232,317 -133,177 -146,191 -204,242 -31,28 -109,101 -173,164 -123,119 -193,179 -287,246 -31,22 -83,63 -116,92 -33,28 -80,62 -105,74 -25,12 -57,31 -72,44 -42,34 -110,76 -186,112 -38,19 -84,46 -101,62 -47,41 -243,135 -378,181 -45,15 -98,37 -117,48 -19,11 -71,30 -115,43 -183,51 -220,66 -223,86 -2,13 26,47 92,111 53,51 101,102 107,114 7,12 33,49 59,83 26,33 53,70 59,83 7,13 48,73 92,133 43,60 87,126 97,147 27,53 43,168 36,254 -5,53 -1,112 15,209 l 22,136 -27,84 c -38,124 -193,385 -287,486 l -60,64 -39,177 c -22,97 -47,193 -57,212 -10,20 -43,52 -79,77 -56,38 -89,51 -209,83 -39,10 -43,14 -43,43 -1,44 -34,223 -61,330 -28,110 -68,159 -164,205 -36,18 -68,38 -71,46 -3,8 4,41 16,72 18,49 21,79 21,197 0,177 -7,219 -43,284 -26,45 -39,57 -100,88 -39,19 -77,35 -85,35 -17,0 -153,68 -154,78 -1,4 -2,66 -4,138 -1,71 -7,153 -14,180 -15,63 -97,188 -144,220 -44,29 -77,29 -140,-3 z m 141,-87 c 28,-29 58,-71 67,-92 15,-37 15,-46 -5,-154 -30,-167 -47,-227 -75,-268 -14,-20 -25,-42 -25,-49 0,-27 50,-12 96,28 60,51 75,49 186,-27 106,-73 135,-100 159,-146 25,-49 24,-95 -6,-219 -43,-175 -45,-183 -44,-209 0,-14 -1,-44 -2,-67 -2,-58 19,-88 74,-101 24,-7 71,-26 103,-45 46,-25 65,-44 86,-82 15,-28 28,-63 28,-79 0,-17 5,-66 10,-110 24,-192 28,-251 19,-267 -14,-27 0,-52 25,-44 30,9 123,6 176,-7 70,-17 166,-73 178,-105 11,-29 16,-66 32,-223 19,-192 40,-290 64,-290 7,0 25,14 41,30 16,17 33,30 37,30 20,0 64,-61 100,-140 22,-47 69,-132 104,-190 35,-58 64,-115 64,-125 0,-20 -13,-83 -52,-242 -16,-68 -19,-101 -13,-196 5,-92 4,-116 -8,-125 -11,-9 -42,-10 -128,-2 -63,5 -117,10 -121,10 -23,0 -1,33 52,79 49,43 68,69 104,144 70,148 110,257 99,268 -7,7 -19,0 -36,-23 -27,-36 -99,-178 -116,-231 -12,-36 -120,-146 -221,-227 -106,-83 -329,-291 -368,-343 -42,-55 -128,-111 -186,-121 -65,-12 -387,-15 -411,-4 -24,11 -101,-10 -210,-56 -67,-29 -130,-32 -188,-12 -81,29 -105,71 -123,218 -17,142 -10,184 45,243 50,55 65,89 50,116 -11,22 -14,21 -87,-38 l -53,-43 h -88 c -81,0 -91,2 -128,29 -46,33 -81,76 -112,139 -12,23 -25,42 -30,42 -21,0 -34,75 -27,162 5,73 13,106 47,186 23,53 50,112 61,130 11,17 34,76 52,130 18,53 54,147 81,207 26,61 55,133 65,161 30,86 92,186 243,392 44,59 86,121 94,137 21,41 172,241 217,287 20,20 71,55 113,77 43,23 105,65 138,95 53,47 58,55 46,70 -7,9 -18,16 -23,16 -26,0 -162,-69 -241,-121 -49,-33 -93,-59 -99,-59 -21,0 -48,-33 -48,-59 0,-16 -22,-55 -55,-99 -57,-76 -127,-198 -139,-242 -3,-14 -33,-54 -67,-89 -33,-36 -76,-94 -95,-130 -57,-109 -104,-180 -127,-195 -12,-8 -75,-20 -139,-26 -140,-16 -188,-6 -248,49 -34,30 -44,49 -65,122 -24,85 -25,89 -10,170 8,46 15,99 15,118 0,40 28,89 86,152 45,49 147,238 175,324 30,89 140,306 177,347 43,47 135,117 282,212 95,62 220,169 220,188 0,14 -34,-4 -90,-47 -30,-23 -84,-57 -120,-74 -36,-18 -126,-72 -200,-121 -113,-75 -144,-101 -188,-159 -29,-38 -63,-96 -76,-128 -27,-66 -94,-210 -168,-358 -76,-153 -92,-182 -115,-207 -29,-30 -54,-91 -52,-126 1,-15 -2,-84 -6,-153 -10,-153 -4,-185 40,-240 40,-50 43,-64 16,-79 -34,-18 -81,-12 -113,15 -36,30 -58,32 -65,5 -7,-27 -39,-35 -67,-16 -20,12 -30,13 -55,3 -27,-10 -33,-8 -56,13 -24,22 -26,23 -44,6 -25,-23 -58,-7 -67,32 -3,15 -12,44 -20,65 -18,47 -18,45 8,49 45,6 26,29 -86,103 -121,79 -152,113 -195,210 -19,41 -23,70 -24,160 -1,122 7,149 79,244 31,40 95,91 116,91 12,0 -30,-84 -61,-121 -16,-20 -33,-49 -37,-65 -4,-16 -15,-45 -24,-64 -10,-19 -20,-63 -23,-96 -5,-67 -13,-51 105,-227 58,-86 202,-158 346,-171 61,-6 72,-5 72,8 0,9 -12,18 -27,22 -205,45 -285,94 -372,227 -71,109 -71,171 -1,272 17,25 34,62 37,82 7,44 84,147 135,183 20,14 69,68 110,120 40,52 94,121 120,153 61,74 94,139 114,224 20,86 33,110 88,161 35,32 51,41 69,37 22,-6 160,29 228,58 19,8 54,31 78,51 57,48 93,66 129,66 18,0 38,10 53,26 29,32 71,54 100,54 12,0 36,15 54,34 37,39 175,231 175,243 0,24 54,83 83,92 50,14 51,14 105,-43 z M 5500,14180 c 0,-5 -4,-10 -10,-10 -5,0 -10,5 -10,10 0,6 5,10 10,10 6,0 10,-4 10,-10 z m -156,-153 c 43,-21 117,-51 165,-67 47,-16 113,-39 146,-50 129,-45 226,-52 363,-29 71,13 79,9 119,-54 16,-25 41,-46 77,-63 77,-36 91,-78 45,-130 -11,-11 -30,-53 -43,-92 -14,-40 -34,-85 -44,-100 -46,-65 -92,-172 -92,-214 0,-24 -7,-76 -17,-115 -16,-71 -16,-74 5,-120 11,-27 32,-73 45,-104 18,-41 49,-80 111,-142 52,-51 86,-93 86,-106 0,-11 4,-22 9,-26 5,-3 15,-22 22,-43 7,-20 23,-54 36,-74 20,-33 23,-50 23,-136 0,-63 -4,-104 -12,-114 -15,-19 -68,-36 -241,-78 -122,-29 -153,-36 -277,-61 -30,-6 -75,-21 -100,-33 -25,-13 -69,-26 -98,-29 -30,-4 -84,-20 -122,-38 -104,-48 -104,-48 -111,111 -3,74 -12,159 -19,188 -17,65 -8,80 41,63 17,-6 43,-11 56,-11 21,0 22,2 13,21 -18,33 -5,49 38,49 63,0 88,-49 35,-68 l -28,-10 32,-12 c 17,-6 34,-18 37,-25 3,-10 15,-12 41,-8 21,3 46,1 60,-7 18,-9 31,-10 55,-1 25,8 38,7 62,-5 25,-13 41,-14 98,-5 38,6 72,11 76,11 3,0 4,12 1,26 -6,33 18,57 49,50 20,-5 24,-3 24,16 0,13 3,33 6,44 4,16 0,23 -16,27 -12,3 -24,15 -27,27 -3,11 -26,33 -52,48 -25,14 -70,53 -100,84 -58,63 -77,72 -67,33 10,-39 -7,-31 -80,38 -63,58 -67,60 -60,32 4,-16 14,-37 22,-46 16,-18 19,-69 4,-69 -6,0 -16,12 -23,28 -6,15 -32,47 -57,72 -25,25 -54,56 -64,70 -26,33 -32,12 -12,-47 19,-55 19,-53 6,-53 -22,0 -104,87 -123,130 -11,25 -37,86 -59,135 -22,50 -46,112 -53,139 -20,70 -64,114 -66,64 0,-22 -1,-22 -10,2 -6,14 -8,36 -6,49 3,13 1,53 -3,90 -7,55 -13,70 -37,88 -24,20 -27,27 -23,70 7,95 -3,384 -15,415 -10,25 47,213 63,206 4,-2 42,-20 86,-41 z m -55,-981 c 22,-53 27,-96 13,-96 -9,0 -72,138 -72,158 0,27 38,-13 59,-62 z m 11,-187 c 0,-6 -4,-7 -10,-4 -5,3 -10,11 -10,16 0,6 5,7 10,4 6,-3 10,-11 10,-16 z m 3135,-120 c 4,-6 -33,-52 -81,-104 -143,-149 -174,-185 -174,-200 0,-22 -76,-73 -120,-80 -54,-9 -58,-21 -16,-45 19,-12 37,-27 40,-35 8,-22 -13,-77 -42,-107 -31,-34 -65,-36 -165,-9 -85,23 -203,48 -269,57 -26,3 -55,12 -65,19 -16,12 -17,15 -1,32 9,10 23,34 31,54 16,39 45,53 157,77 99,22 154,50 213,111 45,46 57,66 57,90 0,21 6,34 18,38 9,3 31,21 47,39 28,32 35,35 105,39 41,2 98,11 125,18 62,18 132,21 140,6 z m -2768,-191 c 16,-13 17,-28 2,-28 -15,0 -69,39 -69,50 0,11 47,-5 67,-22 z m 167,-74 c 20,-8 21,-44 1,-44 -16,0 -38,34 -28,44 8,7 8,7 27,0 z m -88,-59 c 19,-15 19,-15 -5,-35 -28,-24 -40,-25 -69,-4 -18,12 -20,19 -12,35 13,23 58,25 86,4 z m 284,5 c 0,-5 -2,-10 -4,-10 -3,0 -8,5 -11,10 -3,6 -1,10 4,10 6,0 11,-4 11,-10 z m 1108,-138 c 3,-18 -1,-22 -22,-22 -31,0 -42,16 -25,36 17,21 43,13 47,-14 z m 252,-173 c 189,-19 347,-45 480,-79 87,-22 265,-65 330,-78 25,-5 92,-30 150,-55 101,-43 215,-89 312,-127 25,-10 61,-29 80,-43 19,-15 69,-42 112,-62 43,-19 97,-48 119,-64 23,-16 65,-40 93,-54 29,-14 71,-42 95,-62 24,-20 87,-63 139,-97 52,-33 114,-77 136,-97 23,-20 62,-51 86,-68 25,-18 69,-56 99,-85 30,-29 74,-70 99,-92 131,-113 268,-261 365,-396 26,-36 64,-81 84,-101 20,-19 62,-74 94,-122 33,-48 63,-90 69,-93 6,-4 18,-23 27,-43 22,-49 71,-132 90,-155 45,-53 171,-306 212,-430 11,-32 34,-86 51,-120 29,-58 128,-335 128,-359 0,-6 9,-34 19,-62 11,-27 24,-79 30,-115 7,-36 21,-103 31,-150 24,-107 47,-247 60,-372 12,-113 32,-517 26,-526 -2,-4 -7,-74 -11,-157 -6,-144 -15,-222 -35,-330 -6,-27 -14,-75 -19,-105 -27,-157 -42,-231 -50,-252 -6,-13 -22,-72 -36,-133 -64,-268 -242,-708 -359,-890 -25,-38 -64,-106 -87,-150 -22,-44 -60,-105 -83,-135 -24,-31 -55,-77 -70,-102 -15,-25 -44,-66 -65,-90 -21,-23 -63,-77 -95,-118 -74,-97 -260,-296 -360,-385 -43,-39 -115,-105 -160,-148 -44,-43 -108,-94 -140,-113 -33,-19 -100,-66 -150,-103 -90,-68 -143,-102 -306,-198 -123,-72 -289,-158 -335,-173 -22,-7 -79,-29 -126,-50 -47,-21 -110,-46 -140,-54 -30,-9 -94,-30 -144,-47 -212,-73 -255,-78 -255,-29 0,20 45,39 170,70 91,23 244,78 300,109 20,10 56,24 80,31 67,18 379,176 510,259 381,241 626,447 898,756 167,191 161,182 349,465 79,119 278,499 311,595 6,17 25,64 42,105 66,157 158,454 199,645 12,55 26,116 31,135 5,19 12,69 15,110 4,41 14,122 23,180 12,75 16,173 17,340 0,290 -3,361 -20,475 -8,50 -17,115 -20,145 -11,96 -36,232 -61,335 -13,55 -24,112 -24,126 0,14 -10,52 -23,85 -13,32 -36,102 -52,154 -31,106 -83,241 -119,310 -13,25 -27,67 -31,94 -5,33 -16,58 -33,75 -22,22 -51,72 -115,196 -12,22 -31,54 -43,70 -12,17 -34,54 -48,83 -15,29 -50,87 -79,128 -29,42 -59,86 -67,98 -53,76 -307,376 -320,376 -3,0 -21,20 -39,44 -28,40 -230,229 -386,362 -78,67 -225,168 -432,298 -90,57 -404,217 -520,265 -127,53 -393,137 -636,202 -79,21 -317,62 -462,79 -158,18 -519,25 -652,11 -65,-6 -166,-16 -225,-21 -146,-13 -402,-58 -508,-90 -159,-46 -403,-126 -495,-161 -125,-47 -443,-194 -467,-216 -21,-19 -180,-113 -191,-113 -4,0 -51,-30 -104,-66 -53,-36 -107,-70 -120,-75 -13,-5 -50,-35 -81,-67 -31,-31 -93,-86 -137,-122 -134,-110 -393,-377 -468,-485 -16,-22 -47,-58 -68,-80 -22,-22 -54,-62 -72,-88 -18,-27 -66,-99 -108,-160 -42,-62 -98,-150 -123,-197 -74,-135 -186,-359 -186,-371 0,-7 -21,-55 -46,-108 -50,-103 -75,-171 -130,-351 -20,-63 -49,-156 -65,-207 -16,-50 -29,-104 -29,-120 0,-15 -9,-73 -19,-128 -49,-250 -54,-308 -55,-692 -1,-392 14,-602 53,-763 10,-41 24,-102 31,-135 6,-33 14,-69 17,-81 7,-29 -23,-57 -46,-45 -19,11 -43,108 -60,250 -6,46 -20,115 -32,153 -11,38 -18,75 -16,82 3,6 -2,63 -9,126 -17,135 -19,653 -4,745 5,33 10,88 10,122 0,34 5,74 11,89 5,16 16,75 24,133 27,205 82,411 176,669 27,73 49,139 49,146 0,7 25,61 55,121 30,59 55,115 55,125 0,9 8,28 18,41 10,13 37,62 61,109 39,78 87,158 148,251 12,19 23,39 23,43 0,4 20,35 45,69 25,34 67,94 95,132 28,39 74,104 104,145 51,70 468,501 527,545 15,11 62,49 104,83 42,35 103,79 135,98 32,18 77,49 100,69 23,19 72,52 109,72 36,20 81,47 99,61 44,32 392,206 517,259 122,51 307,111 475,153 69,18 148,38 175,46 28,7 95,20 150,29 55,9 120,20 145,25 100,20 208,22 266,5 63,-18 122,-13 194,16 39,16 64,18 200,13 85,-4 238,-15 340,-25 z m -334,-137 c 6,-4 16,-17 23,-29 15,-30 29,-29 43,2 17,38 51,30 58,-13 7,-43 21,-43 43,2 25,53 75,50 96,-7 13,-33 28,-35 33,-4 2,14 9,20 18,18 19,-5 38,-4 70,4 50,11 57,-6 33,-82 -12,-37 -27,-104 -33,-148 -6,-44 -16,-94 -21,-112 -9,-30 -32,-48 -48,-39 -4,3 -54,7 -112,10 -236,13 -278,18 -284,35 -4,9 -5,80 -4,158 2,79 0,146 -4,149 -13,13 -22,-7 -23,-49 0,-23 -1,-88 -2,-144 -3,-140 0,-138 -174,-146 -119,-5 -278,-25 -449,-57 -30,-5 -69,-10 -87,-10 -35,0 -36,1 -88,218 -31,125 -28,142 22,154 16,4 56,14 90,22 81,21 82,21 105,-19 26,-44 39,-44 39,0 0,36 20,55 58,55 33,0 40,-20 53,-150 12,-129 23,-170 41,-152 6,6 4,50 -5,127 -8,65 -11,132 -8,149 7,30 8,31 85,40 71,9 80,8 92,-9 8,-10 14,-28 14,-39 0,-14 8,-5 20,23 19,41 22,43 53,39 17,-3 57,-2 87,2 77,10 153,11 166,2 z m 539,-53 c 4,-5 20,-9 37,-7 22,2 34,-3 42,-17 6,-11 12,-22 13,-24 2,-2 12,4 22,13 25,22 53,17 66,-12 11,-24 20,-28 30,-12 11,17 44,11 56,-11 8,-15 14,-18 22,-10 16,16 45,14 55,-4 15,-28 -69,-330 -97,-344 -9,-5 -34,-6 -56,-1 -22,5 -83,18 -135,29 -52,11 -104,21 -116,21 -11,0 -28,6 -38,13 -17,12 -17,19 -1,143 10,71 19,147 22,169 2,22 6,46 8,53 5,15 61,16 70,1 z m -1534,-89 c 14,-26 68,-233 75,-287 8,-61 15,-56 -141,-98 -186,-51 -362,-119 -569,-221 -114,-56 -111,-58 -221,150 -64,122 -67,130 -50,143 25,18 29,17 63,-12 39,-33 45,-32 38,9 -9,49 6,51 50,8 37,-35 39,-36 42,-15 2,12 -4,36 -14,54 -16,32 -16,33 6,51 25,20 46,23 55,8 11,-17 25,-11 25,10 0,14 11,26 33,35 29,13 33,12 47,-4 9,-10 31,-62 49,-117 45,-137 62,-174 78,-174 7,0 13,3 13,8 0,12 -27,95 -43,132 -9,20 -23,69 -33,109 l -18,74 30,23 c 18,15 42,24 64,24 30,0 38,-5 55,-38 11,-20 25,-35 30,-32 11,6 11,10 1,57 -7,29 -5,34 18,43 33,12 48,6 70,-30 26,-45 39,-36 16,10 -11,23 -18,45 -16,49 3,5 29,12 58,15 29,4 76,14 103,21 59,16 75,15 86,-5 z m 1979,-8 c 21,-17 22,-21 11,-55 -23,-70 15,-70 44,0 20,49 49,42 53,-12 5,-57 17,-64 42,-21 23,39 27,41 49,27 12,-8 13,-16 2,-50 -6,-23 -9,-46 -6,-51 13,-21 34,-8 46,28 18,58 26,64 61,46 16,-8 31,-21 34,-29 3,-8 -17,-61 -44,-117 -28,-57 -62,-129 -76,-160 -20,-47 -29,-58 -48,-58 -13,0 -86,22 -163,48 -122,41 -140,50 -143,70 -5,30 77,335 92,344 16,11 21,10 46,-10 z m 419,-146 c 7,-8 9,-29 5,-54 -4,-24 -2,-42 4,-46 11,-6 16,-2 51,44 17,22 21,23 46,12 25,-11 26,-15 20,-53 -8,-45 -2,-46 43,-5 18,16 27,18 40,9 9,-6 16,-19 14,-29 -2,-11 -6,-31 -9,-46 -7,-37 10,-36 37,2 22,31 48,38 68,18 23,-23 23,-23 -88,-227 -38,-71 -62,-103 -77,-107 -25,-7 -311,131 -321,155 -6,15 17,80 73,211 20,47 40,95 45,108 11,25 32,29 49,8 z m -1539,-186 c 16,-10 19,-50 21,-309 0,-79 -3,-147 -9,-153 -5,-5 -67,-13 -138,-19 -71,-5 -196,-21 -278,-34 -81,-14 -152,-23 -156,-20 -28,17 -103,262 -126,412 -8,50 -1,54 106,71 36,6 108,18 160,26 52,9 156,20 230,24 74,5 144,10 155,10 11,1 27,-3 35,-8 z m 410,-12 c 41,-5 100,-11 130,-13 30,-2 100,-14 155,-25 55,-12 120,-26 145,-31 24,-5 49,-14 54,-19 7,-7 4,-38 -8,-93 -10,-45 -30,-142 -45,-216 -15,-74 -32,-136 -38,-138 -6,-2 -82,8 -169,22 -161,27 -286,41 -454,51 -64,4 -99,11 -106,20 -18,23 -30,430 -13,450 11,13 31,15 143,9 72,-4 165,-12 206,-17 z m 1569,-14 c 17,-14 31,-32 31,-39 0,-7 9,-11 23,-8 13,2 34,-6 52,-20 28,-24 29,-25 12,-50 -18,-28 -23,-57 -9,-57 5,0 19,11 32,25 27,29 40,31 79,10 37,-19 45,-40 24,-71 -11,-18 -13,-28 -5,-36 7,-7 15,-2 27,16 22,33 43,33 84,-2 l 33,-27 -53,-70 c -29,-39 -67,-88 -83,-111 -39,-51 -102,-107 -116,-102 -6,2 -52,32 -103,66 -51,35 -128,84 -172,110 -55,32 -81,54 -83,68 -7,47 150,324 183,324 7,0 27,-12 44,-26 z m -3768,-65 c 88,-148 130,-239 120,-258 -6,-10 -52,-43 -103,-74 -85,-50 -251,-166 -288,-200 -8,-7 -49,-40 -90,-72 -41,-32 -110,-92 -152,-133 -64,-62 -81,-73 -101,-68 -29,7 -237,219 -237,241 0,23 30,65 47,65 8,0 35,-14 59,-32 59,-42 70,-26 15,23 -42,38 -43,39 -27,64 18,27 43,43 78,49 14,2 22,9 20,19 -1,8 9,25 24,36 l 27,21 34,-21 c 43,-27 51,-19 28,26 -19,34 -19,34 5,60 31,33 40,32 76,-7 46,-50 149,-189 162,-221 17,-39 38,-29 35,16 -3,43 -28,94 -95,196 -56,85 -59,111 -10,126 17,5 32,15 32,21 0,15 57,64 75,64 7,0 28,-12 45,-26 39,-34 47,-26 20,19 l -21,36 20,20 c 27,27 59,27 88,-1 28,-27 37,-20 23,18 -10,25 -8,31 11,47 12,10 27,16 32,14 6,-2 27,-32 48,-68 z m 1060,-84 c 26,-115 48,-206 69,-283 10,-40 17,-79 14,-87 -4,-8 -25,-19 -48,-25 -162,-40 -374,-120 -531,-200 -200,-102 -241,-126 -275,-155 -14,-13 -68,-51 -120,-86 -123,-82 -176,-124 -282,-226 l -87,-84 -83,86 c -46,48 -84,91 -86,96 -2,5 6,33 17,63 18,48 18,56 5,75 -24,33 -61,27 -85,-14 -12,-19 -24,-35 -27,-35 -13,0 -62,55 -62,70 0,19 104,122 205,201 39,31 76,64 84,73 15,18 73,58 305,211 68,45 92,56 104,48 9,-5 53,-81 98,-169 61,-120 86,-159 100,-159 32,0 27,33 -20,125 -25,50 -46,96 -46,104 0,7 -9,24 -19,37 -10,14 -26,41 -34,62 -15,35 -15,38 4,56 21,20 332,168 419,199 30,11 91,30 135,43 44,12 100,28 125,35 25,7 59,12 75,11 29,-2 31,-5 46,-72 z m 1789,35 c 9,-5 54,-18 100,-30 47,-12 100,-30 118,-41 18,-10 39,-19 47,-19 23,0 315,-149 321,-164 6,-17 -49,-130 -111,-226 -24,-38 -55,-91 -70,-119 -29,-58 -42,-62 -100,-26 -22,14 -48,25 -58,25 -9,0 -41,13 -70,29 -51,28 -185,79 -322,123 -57,19 -70,27 -69,43 2,29 83,376 95,404 9,21 13,23 57,16 26,-4 54,-11 62,-15 z m 1372,-187 c 22,-20 23,-36 2,-68 -25,-38 -12,-48 26,-20 30,22 36,24 49,10 14,-13 13,-18 -2,-45 -20,-34 -10,-39 29,-14 24,16 26,16 62,-13 64,-52 64,-50 -127,-255 -35,-37 -68,-68 -73,-68 -5,0 -30,19 -56,43 -26,24 -75,65 -109,91 -35,26 -63,52 -63,57 0,18 215,299 229,299 8,0 23,-7 33,-17 z m -601,-164 c 68,-40 138,-81 154,-93 63,-44 272,-216 308,-254 34,-35 37,-43 28,-61 -17,-31 -63,-59 -69,-42 -7,20 -40,51 -56,51 -7,0 -21,-12 -31,-26 -9,-14 -32,-32 -51,-40 -19,-8 -34,-18 -34,-22 0,-30 72,-44 87,-17 5,8 24,18 43,22 l 35,6 -18,-27 c -46,-70 -181,-226 -196,-226 -9,0 -38,22 -63,49 -43,46 -113,99 -196,148 -20,12 -41,28 -47,36 -5,8 -23,21 -40,29 -16,9 -47,29 -67,46 -21,16 -62,42 -93,57 -30,16 -55,34 -55,42 0,7 24,55 54,106 29,50 73,126 96,167 64,111 70,120 78,120 5,0 64,-32 133,-71 z m -1817,-85 c 9,-9 16,-33 16,-57 0,-23 2,-168 4,-322 2,-154 7,-575 10,-935 4,-360 9,-665 12,-677 2,-13 9,-23 14,-23 5,0 12,10 15,23 3,12 1,436 -5,942 -12,1047 -12,1035 2,1053 8,9 45,11 162,6 354,-15 654,-92 1021,-262 78,-36 117,-57 280,-151 218,-126 493,-366 681,-596 68,-83 70,-91 30,-117 -18,-13 -50,-36 -71,-52 -44,-36 -57,-31 -98,40 -55,94 -137,190 -237,277 -55,49 -100,93 -100,98 0,17 -147,118 -225,154 -270,123 -359,149 -500,149 -94,1 -117,-3 -160,-22 -27,-13 -59,-32 -70,-42 -17,-16 -40,-19 -147,-22 -156,-4 -159,-5 -169,-115 -8,-91 -65,-629 -79,-753 -25,-212 -32,-282 -40,-385 -5,-60 -10,-121 -12,-134 -2,-20 6,-29 41,-50 55,-32 60,-45 26,-67 -25,-16 -27,-16 -53,3 -41,30 -70,36 -105,22 -46,-18 -67,-39 -67,-65 0,-13 -4,-25 -9,-29 -6,-3 -56,-7 -113,-9 -158,-5 -258,-33 -360,-102 -117,-78 -160,-123 -207,-213 -54,-104 -58,-107 -129,-91 -31,7 -63,14 -69,16 -17,5 -16,47 1,89 49,117 260,310 422,385 l 82,38 10,49 c 11,52 8,190 -8,318 -5,44 -14,148 -20,230 -27,385 -65,784 -80,837 -6,21 -19,42 -28,46 -9,5 -80,6 -157,2 -138,-8 -140,-7 -177,17 -49,33 -160,73 -203,73 -49,0 -176,-26 -216,-44 -19,-8 -46,-25 -60,-36 -14,-12 -46,-24 -70,-27 -45,-6 -124,-53 -289,-172 -41,-30 -95,-68 -118,-85 -94,-67 -322,-306 -356,-374 -9,-18 -38,-57 -64,-86 -26,-29 -55,-66 -64,-82 -10,-16 -43,-69 -73,-119 -109,-178 -129,-234 -160,-448 -16,-112 -16,-123 0,-180 22,-81 113,-220 155,-237 17,-7 46,-33 65,-57 27,-35 33,-50 28,-76 -8,-53 7,-59 200,-68 337,-16 400,-20 407,-24 4,-2 79,-9 166,-15 87,-6 191,-14 229,-16 39,-3 132,-8 208,-11 112,-4 140,-8 144,-21 4,-10 -4,-24 -23,-39 -26,-20 -29,-29 -29,-80 0,-95 82,-88 -1002,-91 -896,-3 -942,-2 -951,15 -11,22 4,339 20,407 8,37 7,62 -2,102 -13,52 -12,55 10,79 13,14 37,71 57,137 19,62 53,172 75,243 36,118 130,327 178,395 9,14 29,48 43,75 65,129 289,414 464,590 190,191 361,315 641,465 268,143 511,227 787,271 306,50 443,60 469,33 z m 2693,5 c 7,-7 9,-25 6,-42 -5,-27 -4,-29 16,-22 32,10 69,-2 76,-25 4,-12 -2,-36 -16,-60 -12,-22 -20,-42 -17,-45 3,-3 22,7 44,21 l 38,26 23,-26 c 26,-30 28,-47 12,-78 -10,-19 -9,-20 29,-13 37,6 41,4 60,-27 l 21,-32 -21,-35 -21,-34 24,6 c 13,3 34,8 46,12 16,5 25,1 38,-19 17,-26 17,-26 -31,-69 -27,-24 -74,-64 -104,-89 -52,-42 -75,-78 -50,-78 7,0 39,26 73,58 63,59 142,122 151,122 3,0 23,-22 45,-50 27,-34 38,-56 34,-70 -4,-15 0,-20 14,-20 30,0 83,-76 77,-110 -5,-23 -2,-28 19,-34 17,-4 35,-25 61,-73 20,-38 54,-97 76,-132 42,-69 48,-89 27,-97 -21,-8 -211,61 -259,93 -65,44 -196,103 -230,103 -36,0 -139,-58 -191,-108 -36,-35 -41,-37 -97,-34 -73,4 -120,-19 -174,-84 -21,-24 -45,-44 -54,-44 -9,0 -46,34 -82,76 -276,321 -290,338 -290,356 0,26 271,328 293,328 25,0 260,-250 355,-376 22,-31 39,-44 56,-44 26,0 56,23 56,44 0,13 -65,93 -139,168 -25,27 -51,58 -57,70 -7,13 -45,52 -84,87 -39,35 -83,81 -97,102 -25,38 -25,39 -7,66 25,40 151,183 188,215 34,30 46,34 63,17 z m -5253,-241 c 64,-67 116,-126 116,-131 0,-6 -29,-42 -63,-81 -60,-67 -144,-171 -177,-219 -8,-12 -40,-56 -71,-97 -31,-41 -71,-102 -87,-135 -17,-33 -48,-80 -69,-104 l -39,-44 -64,33 c -36,18 -91,50 -122,71 -31,22 -68,43 -82,49 -41,15 -48,41 -24,86 38,71 191,295 209,305 14,7 35,-5 99,-54 100,-76 161,-117 178,-117 32,0 4,34 -75,92 -136,100 -157,121 -149,149 3,13 20,39 37,58 l 32,34 43,-16 c 35,-13 44,-13 44,-3 0,8 -11,21 -25,30 -32,21 -31,28 6,71 36,41 41,42 79,13 38,-28 50,-16 22,22 -12,16 -22,35 -22,43 0,22 47,67 69,67 12,0 64,-47 135,-122 z m 366,-367 c 88,-84 160,-159 160,-165 0,-14 -118,-136 -131,-136 -5,0 -24,-24 -43,-52 -105,-165 -174,-268 -203,-306 -18,-24 -53,-84 -77,-132 -25,-48 -49,-96 -55,-107 -17,-30 -56,-133 -81,-213 -13,-41 -29,-84 -36,-95 -15,-25 -55,-156 -88,-295 -37,-154 -64,-333 -77,-520 -6,-91 -15,-170 -20,-176 -10,-12 -392,-29 -434,-18 -15,4 -27,15 -31,30 -7,26 10,313 26,442 14,108 47,273 67,330 18,51 11,51 163,5 116,-36 218,-58 227,-50 13,14 -21,36 -90,57 -90,29 -96,34 -69,63 28,30 28,45 -2,58 -35,16 -66,-3 -66,-43 0,-29 -1,-30 -35,-25 -19,3 -47,12 -62,19 -25,12 -28,19 -26,57 3,55 38,162 130,390 77,191 136,309 159,318 7,3 49,-16 91,-42 256,-156 283,-169 283,-136 0,14 -21,32 -72,63 -196,118 -255,157 -261,172 -5,13 56,128 121,228 125,193 334,446 360,437 6,-2 83,-73 172,-158 z m 1415,8 c 94,-40 106,-43 217,-47 71,-2 121,-9 127,-16 8,-10 29,-139 37,-236 2,-25 10,-112 19,-195 8,-82 20,-241 25,-353 6,-111 17,-262 25,-335 19,-168 19,-165 -7,-172 -47,-13 -163,-69 -171,-82 -4,-7 -26,-29 -47,-49 -21,-20 -58,-61 -82,-92 -24,-30 -62,-76 -85,-102 -46,-50 -85,-126 -104,-203 -6,-27 -18,-51 -26,-54 -8,-3 -67,2 -131,11 -165,23 -405,45 -632,57 -107,6 -240,14 -295,18 l -100,6 -8,50 c -13,80 -21,100 -42,103 -52,8 -68,15 -107,50 -52,47 -108,160 -108,218 0,135 46,307 111,417 136,229 375,546 468,621 20,16 61,53 91,81 57,55 334,241 430,290 157,80 234,82 395,14 z m 1896,7 c 145,-32 225,-61 369,-137 197,-104 330,-218 458,-391 48,-66 52,-83 18,-92 -32,-8 -79,-57 -167,-173 -38,-51 -75,-93 -82,-93 -7,0 -23,12 -36,25 -30,33 -63,32 -114,-4 -23,-16 -58,-33 -77,-36 -67,-14 -110,-43 -129,-88 -22,-50 -7,-43 -426,-227 -77,-34 -186,-84 -243,-111 -57,-27 -114,-49 -127,-49 -27,0 -130,44 -140,60 -6,10 10,192 35,395 5,44 14,125 20,180 6,55 15,129 20,165 5,36 14,108 20,160 25,215 42,326 51,334 5,6 24,5 47,-2 100,-30 172,-12 274,69 60,47 74,48 229,15 z m 1896,-317 c 15,-5 93,-44 172,-86 164,-86 163,-82 36,-136 -44,-19 -109,-48 -145,-65 -89,-42 -304,-136 -365,-160 -27,-11 -88,-35 -135,-54 -47,-20 -103,-41 -125,-48 -70,-22 -296,-118 -400,-169 -55,-28 -134,-65 -175,-82 -41,-18 -92,-43 -113,-56 -21,-13 -45,-23 -53,-21 -14,3 -104,188 -104,214 0,23 23,64 36,64 7,0 21,-11 32,-25 23,-29 64,-33 116,-11 36,15 92,84 144,177 38,68 70,86 112,64 16,-8 39,-15 52,-15 30,0 105,50 144,97 l 32,38 43,-13 c 118,-36 134,-31 230,69 l 76,80 49,-6 c 76,-11 126,8 171,61 70,85 81,94 112,94 16,0 42,-5 58,-11 z m -6229,-43 c 77,-39 232,-145 232,-159 0,-6 -34,-80 -75,-163 -76,-154 -176,-409 -195,-499 -14,-67 -29,-102 -46,-109 -7,-3 -33,2 -56,10 -24,8 -95,28 -158,44 -63,16 -120,36 -126,45 -15,20 0,83 56,240 51,143 76,195 93,195 16,0 122,-34 204,-66 125,-49 140,-22 18,32 -226,99 -216,90 -181,170 33,80 93,200 122,246 29,45 46,47 112,14 z m 6652,-185 c 0,-19 -79,-76 -155,-112 -44,-21 -165,-72 -268,-114 -104,-41 -228,-93 -275,-114 -48,-21 -116,-50 -152,-65 -36,-15 -97,-43 -136,-62 -39,-19 -75,-34 -80,-34 -5,0 -22,-7 -39,-16 -16,-9 -61,-29 -100,-44 -38,-16 -115,-49 -170,-75 -154,-72 -237,-103 -278,-103 -40,0 -49,17 -18,33 77,41 153,75 166,75 26,0 239,96 470,212 58,29 90,43 370,161 72,30 159,66 194,81 35,15 73,33 85,41 11,7 57,28 101,45 44,17 98,40 119,52 70,38 166,60 166,39 z m 175,-81 c 10,-16 -14,-40 -40,-40 -26,0 -50,24 -40,40 3,5 21,10 40,10 19,0 37,-5 40,-10 z m 14,-138 c 30,-56 131,-371 131,-410 0,-29 -62,-57 -170,-78 -41,-8 -96,-20 -123,-26 -62,-13 -71,-6 -102,93 -13,43 -36,105 -50,138 -14,33 -25,69 -25,79 0,32 82,98 180,147 52,25 102,53 110,61 19,19 37,18 49,-4 z M 8524,9246 c 25,-52 46,-100 46,-106 0,-12 -78,-48 -122,-57 -23,-5 -28,-1 -34,23 -4,16 -12,36 -19,44 -6,8 -22,32 -34,52 l -22,38 28,50 c 29,52 65,74 94,59 9,-5 38,-51 63,-103 z m 1616,72 c 26,-43 92,-254 88,-281 -2,-13 -17,-29 -38,-39 -43,-21 -315,-97 -361,-100 -32,-3 -36,0 -58,47 -38,80 -81,238 -69,253 19,22 102,54 139,53 25,0 71,16 140,48 57,28 112,50 122,50 9,1 26,-14 37,-31 z M 8248,9128 c 4,-19 -31,-39 -213,-121 -407,-183 -605,-249 -605,-202 0,16 38,38 102,61 22,8 72,33 112,57 39,23 96,53 126,66 30,13 69,29 85,36 17,8 41,17 55,20 14,4 63,23 110,43 130,55 152,62 190,59 24,-1 36,-7 38,-19 z m 1363,-18 c 18,-38 69,-224 95,-343 39,-183 73,-438 74,-560 0,-85 -1,-88 -26,-97 -15,-6 -108,-12 -208,-15 -99,-2 -274,-7 -388,-11 -200,-6 -224,-4 -198,22 10,10 20,118 21,212 0,28 -9,60 -26,89 -14,25 -25,51 -25,59 0,14 59,34 102,34 51,0 173,31 190,48 13,12 19,42 24,105 7,89 7,89 44,112 53,33 90,121 93,220 3,86 9,95 82,119 28,9 61,23 75,31 36,21 53,15 71,-25 z m -6226,-54 c 133,-35 224,-66 232,-79 10,-17 4,-72 -17,-151 -39,-144 -70,-399 -71,-579 -1,-91 -5,-131 -14,-141 -17,-16 -202,-27 -300,-18 l -70,7 -3,60 c -3,56 11,270 24,377 4,26 12,49 19,52 8,3 53,-2 102,-10 103,-16 153,-18 153,-4 0,5 -12,12 -27,16 -40,8 -195,55 -213,64 -20,10 -14,106 15,235 7,33 18,84 24,114 12,57 25,81 45,81 6,0 52,-11 101,-24 z m 7345,5 c 5,-11 10,-32 10,-48 0,-15 7,-57 15,-93 24,-111 48,-269 42,-284 -7,-17 -153,-52 -259,-60 -98,-8 -109,1 -127,105 -7,40 -24,114 -37,162 -26,94 -30,132 -15,142 10,5 249,79 286,88 46,11 74,7 85,-12 z m -2470,-51 c 12,-16 41,-74 66,-127 25,-54 52,-109 60,-123 8,-14 27,-49 41,-78 23,-48 24,-55 10,-76 -9,-13 -30,-28 -49,-35 -18,-7 -51,-21 -73,-30 -22,-10 -66,-26 -97,-35 -31,-9 -155,-63 -275,-120 -120,-57 -227,-106 -239,-110 -29,-9 -46,14 -80,107 -54,147 -176,275 -340,358 -46,24 -84,44 -84,45 0,1 3,9 6,18 8,21 28,20 45,-1 22,-26 87,-50 174,-63 l 80,-13 90,35 c 50,20 142,60 205,90 63,31 149,70 190,87 41,17 104,47 140,65 83,43 103,44 130,6 z m 448,-87 c 42,-66 40,-86 -13,-127 -54,-41 -112,-62 -148,-52 -25,6 -57,69 -57,112 0,51 79,104 155,103 35,0 43,-4 63,-36 z m 1546,15 c 42,-66 106,-500 106,-723 0,-82 -1,-86 -25,-95 -13,-5 -117,-10 -231,-11 -164,-1 -208,2 -215,12 -5,8 -9,64 -9,124 0,61 -7,157 -14,215 -8,58 -12,117 -9,131 3,15 -2,42 -10,60 -27,58 -48,160 -37,174 5,6 49,24 97,38 49,14 140,42 203,61 63,19 118,35 122,35 4,1 14,-9 22,-21 z m -986,-115 c -3,-24 -9,-29 -42,-34 -22,-4 -45,-15 -53,-24 -20,-29 -27,-85 -16,-138 9,-44 8,-50 -11,-62 -12,-8 -57,-17 -101,-20 -44,-4 -93,-11 -108,-16 -24,-7 -32,-4 -51,16 -32,34 -51,97 -38,122 13,23 102,69 262,134 139,57 163,60 158,22 z M 7065,8721 c 218,-47 275,-73 377,-178 46,-46 64,-76 93,-146 39,-98 55,-152 62,-212 2,-22 15,-60 28,-85 13,-25 27,-63 31,-85 3,-22 17,-60 29,-85 26,-53 49,-120 43,-126 -3,-2 -23,5 -46,16 -22,11 -48,20 -58,20 -28,0 -114,-62 -121,-88 -3,-13 -16,-27 -28,-32 -13,-5 -29,-22 -37,-37 -15,-33 -93,-73 -246,-129 -135,-48 -185,-47 -337,5 -16,5 -61,15 -100,22 -95,16 -156,51 -217,123 -46,56 -50,63 -45,103 3,32 -1,50 -18,75 -39,58 -56,128 -62,243 -7,132 5,194 52,290 39,80 161,219 199,229 14,3 30,15 36,26 8,14 21,20 48,21 20,0 66,9 102,19 71,20 153,24 215,11 z m 1780,-185 c 57,-115 88,-206 76,-224 -10,-16 -87,-44 -112,-40 -13,2 -29,14 -36,28 -48,95 -123,264 -123,276 0,19 87,74 117,74 19,0 32,-18 78,-114 z m 1958,30 c 8,-9 17,-48 21,-98 4,-46 11,-121 15,-168 11,-112 5,-159 -24,-170 -12,-4 -92,-10 -179,-12 -188,-4 -186,-5 -186,107 0,39 -5,120 -11,179 -8,76 -8,111 0,119 6,6 39,14 73,19 35,4 104,14 153,22 119,18 121,18 138,2 z m -2313,-41 c 0,-19 -14,-27 -165,-90 -77,-32 -151,-65 -164,-74 -30,-20 -166,-76 -242,-100 -31,-10 -82,-30 -113,-45 -72,-34 -116,-43 -116,-25 0,14 135,79 163,79 8,0 37,15 63,33 113,77 344,184 489,226 63,18 85,17 85,-4 z M 6319,8326 c 11,-14 15,-72 11,-167 -1,-31 2,-78 8,-105 6,-27 16,-76 23,-109 6,-33 24,-98 39,-144 27,-81 31,-86 127,-176 54,-52 112,-107 128,-123 17,-16 40,-34 53,-41 27,-14 29,-37 4,-50 -25,-14 -59,-3 -65,20 -3,10 -17,24 -31,30 -23,11 -36,7 -110,-29 -130,-65 -245,-117 -441,-202 -267,-115 -324,-135 -341,-124 -9,5 -36,56 -61,114 -25,57 -52,114 -59,125 -7,11 -16,39 -20,63 -4,23 -10,42 -15,42 -4,0 -21,-12 -36,-26 -36,-34 -96,-64 -125,-64 -51,0 -97,64 -84,115 5,20 23,34 74,58 96,47 92,43 80,78 -8,24 -7,34 3,44 18,19 264,140 342,170 34,13 91,38 126,55 35,18 98,47 140,65 42,17 92,43 112,56 20,13 50,31 66,40 25,14 31,24 36,65 3,27 1,56 -3,64 -13,24 -32,140 -26,156 7,18 30,18 45,0 z m 2238,-106 c 39,-78 54,-142 36,-153 -5,-3 -129,-8 -278,-11 -148,-4 -280,-10 -293,-13 -38,-9 -23,-38 18,-37 378,16 568,20 582,13 29,-15 79,-10 156,17 63,22 79,24 101,14 19,-9 143,-11 451,-10 234,1 431,2 438,1 15,-1 16,-180 2,-286 -5,-38 -14,-113 -20,-165 -18,-171 -75,-357 -190,-625 -65,-151 -177,-340 -291,-490 -24,-31 -51,-67 -59,-79 -49,-70 -186,-228 -227,-261 -26,-22 -63,-56 -81,-76 -44,-51 -207,-190 -262,-224 -25,-15 -68,-45 -95,-66 -28,-21 -88,-57 -135,-80 -47,-23 -134,-69 -195,-103 -60,-34 -128,-70 -150,-81 -22,-11 -46,-32 -53,-47 -15,-31 -23,-34 -52,-16 -21,13 -17,14 -181,-35 -86,-25 -183,-48 -289,-67 -30,-6 -85,-18 -123,-27 -46,-12 -70,-14 -77,-7 -6,6 -19,44 -28,85 -14,57 -31,93 -73,153 -30,43 -61,83 -69,87 -130,68 -124,67 -441,96 -93,8 -170,-16 -217,-68 -41,-45 -48,-46 -97,-18 -25,15 -47,20 -73,17 -25,-3 -68,6 -134,29 -70,24 -115,33 -161,33 -58,0 -65,-2 -75,-25 -10,-22 -15,-24 -59,-19 -46,6 -50,4 -96,-40 -46,-45 -70,-56 -81,-37 -3,5 -41,23 -85,40 -55,23 -82,39 -89,56 -6,13 -55,53 -109,89 -54,36 -150,113 -213,172 -166,153 -204,182 -232,177 -23,-4 -25,0 -41,85 -9,49 -17,94 -17,100 0,7 30,25 67,42 75,34 88,31 134,-30 76,-98 166,-193 198,-208 45,-20 125,-75 171,-118 64,-58 322,-224 374,-239 28,-9 89,-15 140,-15 198,1 314,38 372,120 21,30 38,44 50,43 11,-2 51,-6 91,-9 l 72,-7 34,34 c 30,30 35,42 41,104 7,70 25,211 52,405 7,58 14,125 14,150 0,25 5,64 10,86 9,39 40,266 61,444 5,41 6,96 3,122 -7,59 7,85 51,94 19,3 45,14 58,24 17,14 49,18 147,22 101,4 139,11 199,32 41,14 85,26 97,26 h 23 l -19,-42 c -21,-47 -24,-120 -10,-223 5,-33 14,-116 20,-185 24,-275 47,-504 80,-800 7,-57 20,-134 29,-170 l 16,-65 75,-8 c 140,-15 138,-14 160,-57 67,-130 201,-180 351,-130 161,54 522,262 599,345 14,15 56,47 94,73 165,109 342,320 453,537 130,255 146,308 147,493 l 1,124 -54,47 c -54,47 -55,49 -58,112 -7,117 15,105 -208,112 -107,4 -237,11 -288,17 -50,5 -200,14 -333,20 -132,6 -276,17 -320,25 -43,8 -132,14 -196,15 -108,0 -137,7 -108,25 17,11 -1,134 -32,219 -29,80 -27,106 9,106 15,0 91,25 233,76 105,38 122,45 230,97 101,49 252,107 270,104 8,-1 34,-40 57,-87 z m 2281,-230 c 6,-160 -35,-476 -97,-765 -26,-119 -44,-169 -64,-173 -22,-4 -318,86 -335,102 -10,10 -8,31 12,108 13,52 32,142 40,199 24,150 31,169 66,169 16,0 80,-11 144,-25 135,-29 136,-29 136,-11 0,17 -15,23 -92,36 -128,24 -191,39 -200,48 -11,11 3,366 16,379 8,8 219,21 316,19 l 55,-1 z m -5641,66 c 5,-4 -3,-17 -17,-27 -69,-55 -88,-80 -104,-144 -23,-93 -21,-112 29,-219 25,-54 45,-104 45,-112 0,-14 -15,-19 -85,-28 -166,-21 -193,-35 -202,-107 -5,-33 -17,-56 -50,-94 -67,-74 -95,-136 -91,-199 l 3,-51 -45,-22 c -28,-15 -62,-23 -95,-23 -57,0 -110,-27 -125,-63 l -9,-22 v 22 c -1,12 -6,23 -12,25 -11,4 -39,72 -39,96 0,7 -7,20 -15,28 -8,9 -18,27 -22,42 -3,15 -12,32 -18,37 -22,19 -58,168 -49,202 4,13 -2,33 -14,50 -14,18 -28,70 -42,153 -48,278 -57,423 -27,442 12,8 112,10 609,12 136,1 251,5 255,10 9,9 110,3 120,-8 z m 693,-11 c -21,-20 -462,-215 -487,-215 -14,0 -93,156 -93,183 0,9 -10,23 -22,31 -21,15 5,16 297,16 280,0 317,-2 305,-15 z m 4462,-3 c 6,-6 10,-42 9,-89 -2,-95 -27,-335 -41,-397 -5,-25 -15,-79 -20,-118 -14,-99 -49,-226 -68,-244 -8,-8 -22,-12 -30,-9 -9,3 -93,26 -187,50 -93,24 -182,48 -197,54 -34,13 -35,26 -8,132 23,90 57,337 70,508 5,63 13,117 19,120 18,11 441,5 453,-7 z m -6838,-7 c 9,-9 16,-32 16,-53 0,-20 5,-92 12,-160 8,-85 9,-125 1,-133 -10,-10 -171,-35 -299,-46 -65,-5 -72,-4 -77,13 -11,35 -30,332 -23,358 7,29 10,30 212,34 120,3 144,1 158,-13 z m 567,5 c 16,-9 19,-22 19,-73 0,-70 24,-264 39,-317 5,-19 13,-60 16,-90 4,-30 14,-72 21,-94 17,-48 8,-62 -52,-77 -24,-6 -49,-17 -55,-25 -9,-12 -5,-14 25,-14 21,0 46,5 57,10 32,18 55,-4 78,-76 12,-36 41,-107 64,-157 24,-51 49,-108 57,-127 7,-19 18,-41 23,-48 12,-15 12,-14 -35,-30 -21,-7 -73,-32 -115,-56 -77,-42 -214,-99 -264,-110 -18,-4 -31,0 -41,12 -18,19 -138,314 -138,337 0,8 -7,34 -15,59 -8,24 -13,51 -9,59 3,9 58,32 132,56 70,23 136,48 146,56 19,14 19,15 -9,15 -15,0 -81,-16 -146,-37 -96,-29 -121,-34 -133,-24 -43,36 -111,424 -111,636 v 110 l 30,6 c 51,11 395,10 416,-1 z m 2049,1 c 0,-5 -12,-16 -27,-24 -16,-7 -71,-36 -123,-64 -52,-28 -106,-54 -120,-58 -14,-4 -90,-39 -168,-76 -224,-108 -242,-115 -253,-98 -14,22 -11,39 9,46 30,10 256,104 287,119 55,26 380,164 388,164 4,0 7,-4 7,-9 z m -822,-163 c 24,-48 46,-103 49,-121 5,-31 2,-36 -30,-56 -61,-38 -69,-32 -121,83 -25,57 -46,107 -46,110 0,4 12,23 27,42 20,27 32,34 52,32 21,-2 33,-18 69,-90 z M 3555,7630 c 3,-5 12,-44 20,-87 26,-137 34,-173 45,-192 5,-11 10,-42 10,-70 v -50 l -42,-12 c -158,-42 -305,-76 -315,-72 -18,7 -39,86 -63,238 -12,72 -24,142 -27,157 -7,35 8,42 137,63 58,9 125,20 150,25 64,11 78,11 85,0 z m 4381,-90 c 43,-5 196,-14 339,-20 143,-6 303,-15 355,-21 52,-5 140,-14 195,-19 118,-11 205,-24 261,-39 35,-9 42,-16 52,-49 7,-23 22,-44 36,-51 13,-7 36,-32 52,-55 39,-58 37,-114 -11,-246 -20,-58 -45,-128 -55,-157 -29,-82 -127,-274 -165,-323 -20,-25 -55,-74 -79,-110 -49,-72 -109,-132 -206,-205 -36,-27 -85,-66 -108,-87 -53,-45 -145,-98 -171,-98 -10,0 -24,-7 -32,-16 -7,-8 -26,-22 -43,-31 -17,-8 -50,-31 -73,-49 -23,-19 -44,-34 -48,-34 -3,0 -45,-18 -93,-41 -191,-90 -273,-75 -380,70 -22,29 -28,31 -83,31 -33,0 -80,5 -105,11 -49,13 -50,16 -58,109 -2,30 -13,141 -25,245 -23,209 -36,343 -51,540 -10,124 -18,180 -42,306 -13,69 -3,91 51,117 53,26 167,119 221,181 l 45,51 h 71 c 39,0 106,-4 150,-10 z M 5102,7393 c 28,-32 49,-84 43,-104 -7,-20 -53,-49 -79,-49 -9,0 -73,-29 -144,-65 -70,-36 -133,-65 -140,-65 -19,0 -14,20 21,90 24,49 46,75 90,108 41,31 57,50 57,67 0,20 6,24 38,28 82,8 99,7 114,-10 z m 1378,-58 c 0,-18 -34,-35 -125,-65 -38,-12 -98,-36 -133,-52 -34,-16 -68,-28 -75,-25 -13,4 73,57 94,57 8,0 25,6 39,14 130,72 158,86 178,86 13,0 22,-6 22,-15 z m 3376,-94 c 32,-11 113,-36 179,-56 161,-48 175,-54 175,-77 0,-61 -158,-454 -221,-548 -9,-14 -29,-50 -44,-80 -15,-30 -34,-62 -42,-71 -16,-19 -45,-15 -68,11 -15,17 -15,19 4,25 28,8 28,56 1,80 -19,18 -22,18 -37,2 -15,-14 -15,-22 -6,-47 6,-17 9,-30 6,-30 -2,0 -59,35 -126,79 -67,43 -132,83 -143,89 -39,21 -36,40 25,156 55,102 191,411 191,432 0,13 30,54 39,54 4,0 34,-9 67,-19 z m -4543,-58 c 18,-32 18,-33 -5,-56 -21,-21 -119,-66 -357,-163 -86,-35 -113,-55 -97,-71 4,-4 21,-1 39,6 18,7 67,26 109,42 43,16 97,37 120,48 77,34 218,91 227,91 12,0 91,-156 91,-181 0,-27 -48,-109 -64,-109 -7,0 -25,14 -41,30 -50,52 -113,35 -176,-46 -23,-30 -54,-63 -68,-73 -21,-14 -119,-41 -152,-41 -4,0 -30,47 -57,104 -55,114 -98,157 -167,170 -69,13 -52,41 44,71 31,10 79,29 106,43 110,57 381,170 405,169 15,-1 31,-13 43,-34 z m 341,-50 c 30,-61 45,-107 50,-149 8,-71 -3,-87 -56,-82 -32,3 -36,8 -91,123 -72,147 -74,163 -27,181 70,25 76,22 124,-73 z m -2000,44 c 9,-12 23,-54 32,-92 22,-87 55,-178 104,-277 38,-78 38,-78 19,-102 -19,-25 -194,-119 -280,-151 -36,-13 -52,-14 -67,-6 -23,12 -44,67 -60,153 -6,31 -22,85 -37,120 -29,70 -76,248 -68,260 8,15 77,44 143,62 36,10 90,26 120,36 72,24 77,24 94,-3 z m 2968,-147 c -1,-36 -9,-121 -17,-190 -8,-69 -22,-197 -31,-285 -8,-88 -19,-203 -24,-255 -15,-149 -42,-282 -62,-302 -13,-13 -34,-18 -78,-18 h -61 l -64,-63 c -97,-96 -147,-105 -343,-61 -109,24 -123,31 -236,102 -67,42 -137,90 -156,107 -19,17 -82,66 -140,108 -58,42 -123,94 -144,116 -39,40 -39,41 -21,61 10,11 24,20 30,20 7,0 24,9 39,21 19,15 26,30 26,54 0,43 14,53 80,52 79,0 152,44 162,98 3,16 11,20 48,21 56,0 106,26 128,65 10,16 19,29 22,29 3,0 29,18 58,39 29,22 76,48 105,59 65,25 183,81 262,126 33,19 68,35 78,35 9,1 41,13 70,27 88,43 241,104 257,101 12,-2 14,-16 12,-67 z m 3843,34 c 211,-57 200,-51 198,-113 -2,-30 -13,-77 -28,-109 -14,-31 -40,-97 -58,-147 -27,-75 -37,-91 -56,-93 -28,-4 -120,29 -221,80 -41,21 -83,38 -92,38 -29,0 -26,44 7,110 12,25 28,63 34,85 31,102 65,185 75,185 6,0 70,-16 141,-36 z m -7278,-59 c 12,-48 42,-134 132,-383 23,-63 54,-133 70,-156 16,-23 36,-58 44,-78 20,-46 30,-52 72,-37 46,17 68,0 40,-31 -10,-11 -24,-20 -31,-20 -19,0 -64,-22 -64,-31 0,-4 15,-16 33,-26 28,-17 117,-146 117,-171 0,-4 11,-24 26,-43 14,-19 48,-72 76,-118 57,-95 168,-245 275,-373 48,-57 73,-95 73,-112 0,-40 -16,-39 -52,1 -18,21 -59,65 -91,98 -87,90 -137,155 -157,200 -10,22 -40,69 -67,104 -26,35 -57,78 -68,96 -31,49 -106,145 -115,145 -4,0 -11,17 -15,38 -4,20 -13,44 -20,52 -7,8 -18,35 -25,60 -6,25 -20,54 -30,65 -21,24 -80,139 -80,157 0,7 -10,29 -22,48 -22,36 -88,214 -88,238 0,7 -12,39 -27,70 -14,31 -32,81 -39,111 -7,31 -18,70 -25,88 -11,26 -10,34 1,48 23,28 44,13 57,-40 z m 1103,-242 c 0,-10 -8,-32 -18,-48 -29,-47 -90,-244 -98,-312 -6,-62 -7,-63 -43,-73 -84,-23 -190,-7 -311,48 -36,16 -100,40 -143,52 -115,34 -114,44 4,89 41,16 97,38 124,50 28,11 72,23 98,26 30,4 56,15 70,28 25,26 274,156 300,157 10,0 17,-7 17,-17 z m 5915,-63 c 9,-10 49,-31 89,-46 39,-14 87,-35 106,-46 19,-10 50,-26 68,-34 17,-8 33,-20 33,-27 2,-21 -1,-41 -11,-62 -86,-186 -110,-239 -110,-247 0,-6 -14,-28 -32,-50 -27,-35 -35,-39 -62,-34 -38,8 -251,129 -286,162 l -25,24 90,178 c 113,226 107,218 140,182 z m -670,-143 c 270,-178 315,-211 315,-237 0,-29 -162,-258 -297,-420 -64,-78 -184,-200 -195,-200 -26,0 -318,315 -318,343 0,13 48,72 124,152 26,28 102,128 168,223 73,103 127,172 137,172 9,0 39,-15 66,-33 z m 465,-304 c 14,-10 79,-47 145,-83 69,-38 121,-72 123,-82 3,-14 -49,-102 -164,-273 -18,-28 -47,-64 -63,-79 l -30,-29 -78,68 c -43,38 -107,95 -143,127 -75,69 -82,40 54,238 96,139 107,147 156,113 z M 3770,6116 c 97,-37 200,-66 231,-66 15,0 35,-7 43,-16 16,-15 16,-38 -1,-194 -3,-30 -6,-82 -8,-116 -4,-103 -19,-105 -93,-10 -60,76 -233,330 -256,373 -31,62 -17,66 84,29 z m 1305,-173 c 61,-54 138,-122 173,-151 34,-30 60,-57 57,-62 -2,-4 -26,-10 -52,-14 -27,-3 -70,-15 -98,-26 -43,-18 -54,-29 -82,-80 -18,-32 -33,-66 -33,-76 0,-21 -28,-54 -46,-54 -27,0 -42,108 -50,353 -5,174 -4,207 8,207 7,0 63,-44 123,-97 z m 4079,-118 c 132,-138 156,-167 147,-182 -17,-33 -191,-186 -276,-243 -27,-18 -65,-46 -83,-62 -42,-36 -174,-124 -216,-144 -17,-8 -44,-23 -61,-33 -16,-11 -42,-23 -56,-26 -33,-8 -44,7 -130,170 -34,66 -75,139 -91,162 -15,23 -28,49 -28,57 0,9 28,33 62,53 185,114 417,284 498,367 24,25 52,46 61,46 9,0 87,-74 173,-165 z m 681,-25 c 61,-51 120,-96 133,-101 36,-14 40,-7 -112,-191 -85,-104 -195,-216 -283,-290 -220,-186 -212,-182 -249,-147 -14,13 -33,38 -41,54 -9,17 -30,48 -48,70 -17,22 -47,69 -65,104 l -34,63 44,41 c 25,22 77,71 116,108 40,38 77,69 84,69 6,0 60,-50 118,-110 59,-61 113,-110 120,-110 31,0 4,44 -88,142 -55,58 -100,112 -100,118 0,11 92,116 212,242 38,41 50,48 65,40 10,-6 68,-52 128,-102 z M 8336,5465 c 11,-22 58,-108 102,-191 45,-83 82,-161 82,-172 0,-47 -338,-189 -630,-266 -52,-13 -139,-36 -193,-51 -54,-14 -110,-25 -124,-23 -20,2 -43,23 -85,78 -32,41 -68,92 -78,112 -34,64 -91,230 -85,249 6,19 53,32 180,49 88,12 141,26 380,102 177,56 287,97 355,133 25,13 52,23 60,22 8,-1 24,-20 36,-42 z m 783,-211 c 18,-27 67,-91 108,-142 42,-53 73,-100 71,-110 -2,-9 -41,-43 -88,-75 -331,-225 -427,-279 -705,-392 -44,-18 -117,-49 -163,-69 -83,-36 -147,-56 -257,-81 -33,-7 -83,-22 -112,-34 l -52,-20 -19,24 c -11,14 -39,61 -62,106 -27,52 -64,103 -103,142 -50,50 -58,62 -45,71 8,6 75,28 149,50 74,21 176,51 226,67 51,16 99,26 107,23 8,-3 27,-40 42,-82 43,-120 52,-142 63,-142 29,0 20,75 -19,162 -33,74 -29,85 48,120 37,17 109,51 160,76 90,43 93,44 113,27 11,-10 42,-60 70,-112 53,-98 66,-113 75,-89 3,8 -17,59 -45,112 -28,54 -51,106 -51,116 0,12 23,33 63,58 34,21 80,52 102,68 22,15 65,43 95,60 30,18 82,52 115,76 33,25 64,44 70,42 5,-1 25,-25 44,-52 z"
       id="path2956" />
    <path
       d="m 6757,15053 c -11,-10 -8,-20 8,-27 21,-8 45,3 45,20 0,14 -41,20 -53,7 z"
       id="path2958" />
    <path
       d="m 7439,14725 c 43,-19 62,-19 37,0 -11,8 -31,15 -45,15 -24,-1 -24,-2 8,-15 z"
       id="path2960" />
    <path
       d="m 6283,14671 c -49,-8 -73,-26 -73,-53 0,-17 4,-19 23,-13 53,18 105,16 153,-3 177,-73 234,-87 234,-59 0,22 -41,54 -120,93 -79,39 -138,49 -217,35 z"
       id="path2962" />
    <path
       d="m 7668,14363 c -29,-26 -64,-58 -78,-72 -15,-14 -59,-53 -99,-86 -140,-116 -184,-160 -204,-205 -11,-25 -30,-58 -43,-75 -12,-16 -34,-55 -48,-85 -14,-30 -34,-71 -45,-90 -11,-19 -57,-110 -102,-202 -69,-139 -81,-169 -70,-182 18,-21 37,-10 74,43 35,51 191,342 266,496 27,55 63,114 80,130 17,17 50,50 74,75 23,24 58,60 78,80 81,79 189,199 189,209 0,21 -20,11 -72,-36 z"
       id="path2964" />
    <path
       d="m 8092,13738 c -31,-34 -102,-188 -102,-221 0,-26 2,-28 16,-16 14,11 134,239 134,254 0,13 -29,3 -48,-17 z"
       id="path2966" />
    <path
       d="m 6484,13521 c -40,-10 -54,-19 -54,-35 0,-8 -11,-39 -25,-70 -14,-31 -25,-59 -25,-63 0,-14 45,36 77,85 34,52 34,52 86,52 78,0 174,-18 219,-41 45,-23 55,-20 39,9 -21,40 -98,67 -196,69 -49,1 -104,-2 -121,-6 z"
       id="path2968" />
    <path
       d="m 7905,13360 c -4,-6 -34,-24 -68,-40 -125,-59 -213,-124 -336,-246 -66,-67 -121,-126 -121,-132 0,-15 -95,-122 -128,-144 -58,-39 -84,-138 -38,-146 21,-4 93,67 185,183 30,39 76,90 101,115 25,25 90,92 145,150 56,58 134,130 175,161 87,66 115,94 101,103 -5,4 -13,2 -16,-4 z"
       id="path2970" />
    <path
       d="m 6248,11864 c -9,-8 12,-54 24,-54 13,0 5,53 -8,57 -5,2 -13,1 -16,-3 z"
       id="path2972" />
    <path
       d="m 6770,11409 c -6,-11 -9,-33 -5,-49 12,-53 125,-75 125,-24 0,8 -14,33 -32,55 -35,44 -71,51 -88,18 z"
       id="path2974" />
    <path
       d="m 6323,11345 c -41,-29 -24,-85 24,-85 27,0 56,40 51,72 -4,29 -43,35 -75,13 z"
       id="path2976" />
    <path
       d="m 7110,11442 c -22,-17 -22,-18 -5,-69 20,-61 36,-77 68,-69 48,12 59,78 20,124 -26,30 -57,35 -83,14 z"
       id="path2978" />
    <path
       d="m 7702,11317 c -6,-7 -13,-33 -14,-58 -2,-33 1,-44 12,-44 18,0 64,81 56,100 -7,19 -40,19 -54,2 z"
       id="path2980" />
    <path
       d="m 6050,11226 c 0,-14 5,-26 10,-26 6,0 10,9 10,19 0,11 -4,23 -10,26 -6,4 -10,-5 -10,-19 z"
       id="path2982" />
    <path
       d="m 5473,11045 c -28,-19 -32,-79 -7,-89 26,-10 32,-7 43,24 5,17 15,30 21,30 6,0 10,10 8,23 -4,27 -35,33 -65,12 z"
       id="path2984" />
    <path
       d="m 5226,10924 c -26,-38 -17,-65 26,-80 29,-10 40,-10 54,0 16,12 16,17 4,47 -26,67 -55,78 -84,33 z"
       id="path2986" />
    <path
       d="m 7905,11226 c -9,-14 -15,-39 -13,-58 3,-28 7,-34 31,-36 34,-4 72,19 80,47 7,28 -28,71 -58,71 -15,0 -31,-10 -40,-24 z"
       id="path2988" />
    <path
       d="m 8382,11068 c -7,-7 -12,-22 -12,-34 0,-13 -4,-26 -10,-29 -18,-11 -11,-34 15,-51 24,-16 26,-15 62,16 53,46 56,54 32,84 -22,28 -66,35 -87,14 z"
       id="path2990" />
    <path
       d="m 8592,10933 c -23,-9 -32,-39 -21,-72 12,-35 27,-38 69,-16 65,33 20,116 -48,88 z"
       id="path2992" />
    <path
       d="m 7328,10593 c 7,-3 16,-2 19,1 4,3 -2,6 -13,5 -11,0 -14,-3 -6,-6 z"
       id="path2994" />
    <path
       d="m 9232,10420 c -38,-17 -42,-23 -42,-53 0,-21 6,-37 14,-40 17,-7 86,10 87,21 4,43 2,75 -6,82 -6,5 -28,1 -53,-10 z"
       id="path2996" />
    <path
       d="m 4517,10347 c -25,-18 -19,-59 11,-72 13,-5 25,-20 28,-32 10,-37 29,-46 62,-29 42,22 60,76 25,76 -10,0 -25,15 -33,33 -17,36 -61,48 -93,24 z"
       id="path2998" />
    <path
       d="m 4167,9832 c -10,-10 -17,-21 -17,-25 0,-12 108,-77 128,-77 31,0 57,43 42,70 -24,45 -123,65 -153,32 z"
       id="path3000" />
    <path
       d="m 4065,9610 c -12,-20 16,-59 52,-71 63,-20 86,13 35,50 -37,26 -78,36 -87,21 z"
       id="path3002" />
    <path
       d="m 3790,8801 c -15,-29 -12,-68 5,-75 20,-7 105,4 105,14 0,4 -13,13 -29,19 -15,7 -33,23 -39,37 -14,29 -28,31 -42,5 z"
       id="path3004" />
    <path
       d="m 3776,8272 c -3,-5 -2,-22 3,-38 6,-22 13,-29 32,-29 30,0 37,29 13,56 -18,20 -39,25 -48,11 z"
       id="path3006" />
    <path
       d="m 10064,9069 c -3,-6 -1,-16 5,-22 13,-13 42,0 49,21 5,15 -44,16 -54,1 z"
       id="path3008" />
    <path
       d="m 10115,8831 c -3,-5 -1,-12 4,-15 13,-8 42,4 35,15 -7,12 -31,12 -39,0 z"
       id="path3010" />
    <path
       d="m 10203,8234 c -10,-26 11,-49 47,-52 47,-5 58,11 27,42 -30,29 -65,34 -74,10 z"
       id="path3012" />
    <path
       d="m 6930,8615 c -94,-14 -219,-63 -261,-102 -52,-48 -117,-157 -134,-223 -11,-43 -26,-75 -46,-96 -29,-30 -29,-31 -19,-95 6,-35 14,-98 19,-140 7,-55 17,-88 38,-120 48,-75 163,-167 270,-216 53,-24 70,-27 183,-27 107,0 132,3 170,20 25,12 57,24 72,28 43,10 198,176 230,245 35,75 47,241 22,300 -10,23 -13,49 -9,73 9,52 -41,145 -109,202 -87,73 -199,142 -241,149 -22,4 -53,8 -70,11 -16,2 -68,-2 -115,-9 z m 167,-120 c 192,-67 262,-137 284,-290 15,-99 2,-175 -44,-267 -44,-87 -49,-93 -132,-146 -75,-49 -135,-65 -236,-66 -88,0 -193,56 -264,142 -85,102 -99,139 -100,252 0,87 3,100 32,160 18,36 39,82 47,102 16,40 54,63 196,114 83,30 126,30 217,-1 z"
       id="path3014" />
    <path
       d="m 9426,7841 c -14,-15 -14,-20 -3,-30 11,-9 20,-7 37,7 13,11 20,24 16,30 -11,17 -31,15 -50,-7 z"
       id="path3016" />
    <path
       d="m 9549,7762 c -26,-22 -21,-52 9,-52 23,0 52,30 52,53 0,23 -32,22 -61,-1 z"
       id="path3018" />
    <path
       d="m 9355,7719 c -10,-15 3,-25 16,-12 7,7 7,13 1,17 -6,3 -14,1 -17,-5 z"
       id="path3020" />
    <path
       d="m 6977,7163 c -3,-6 -2,-249 2,-301 1,-7 6,-10 11,-7 13,8 13,302 1,310 -5,3 -12,2 -14,-2 z"
       id="path3022" />
    <path
       d="m 6984,6683 c 3,-82 6,-238 6,-348 0,-185 15,-498 26,-554 3,-14 9,-20 14,-15 4,5 4,130 -1,279 -4,149 -11,371 -14,495 -6,245 -10,290 -27,290 -8,0 -9,-43 -4,-147 z"
       id="path3024" />
    <path
       d="m 7374,5757 c -32,-28 -28,-57 9,-57 29,0 60,32 55,57 -5,27 -32,27 -64,0 z"
       id="path3026" />
    <path
       d="m 7497,5689 c -21,-12 -50,-66 -42,-79 16,-26 71,3 94,48 20,38 -10,56 -52,31 z"
       id="path3028" />
    <path
       d="m 4446,7813 c -11,-11 -6,-23 9,-23 8,0 15,4 15,9 0,13 -16,22 -24,14 z"
       id="path3030" />
    <path
       d="m 4583,7733 c -18,-7 -16,-43 1,-43 28,0 46,12 46,31 0,19 -20,24 -47,12 z"
       id="path3032" />
    <path
       d="m 10201,7939 c -19,-8 -21,-12 -11,-24 17,-20 43,-19 63,3 27,30 -1,42 -52,21 z"
       id="path3034" />
    <path
       d="m 3755,7953 c -16,-16 -19,-32 -9,-57 7,-18 39,-22 49,-6 3,6 19,10 35,10 61,0 45,40 -23,58 -29,8 -40,7 -52,-5 z"
       id="path3036" />
    <path
       d="m 10059,7090 c -10,-7 -11,-14 -4,-26 14,-22 48,-34 65,-24 12,7 12,11 0,25 -21,25 -44,35 -61,25 z"
       id="path3038" />
    <path
       d="m 9673,6315 c -17,-13 -17,-14 6,-39 28,-30 59,-34 68,-10 14,37 -41,73 -74,49 z"
       id="path3040" />
    <path
       d="m 21968,15293 c -8,-10 -25,-45 -36,-78 -11,-33 -44,-125 -72,-205 -28,-80 -67,-194 -87,-253 -52,-158 -41,-150 -212,-148 -79,1 -218,6 -310,11 -242,14 -291,13 -291,-5 0,-15 28,-36 188,-138 41,-27 113,-77 161,-111 47,-34 106,-74 131,-88 25,-14 63,-42 85,-61 l 39,-34 -36,-104 c -20,-57 -64,-176 -98,-264 -60,-157 -96,-287 -85,-306 18,-28 106,21 230,127 39,33 108,87 155,119 47,32 107,76 133,97 27,21 59,38 71,38 24,0 85,-40 215,-141 45,-35 105,-81 134,-102 72,-53 266,-159 278,-152 16,10 10,35 -30,145 -21,58 -58,166 -81,240 -24,74 -54,166 -68,204 -14,38 -25,85 -26,104 -1,39 -19,25 284,230 85,57 166,115 180,127 14,13 46,32 73,43 48,21 62,47 30,59 -9,4 -116,1 -237,-6 -449,-26 -459,-26 -479,-3 -10,11 -30,62 -43,112 -14,51 -31,108 -39,127 -8,20 -15,44 -15,55 0,11 -15,70 -34,132 -19,61 -36,122 -39,136 -9,42 -34,104 -44,107 -5,2 -16,-4 -25,-14 z"
       id="path3042" />
    <path
       d="m 21264,14081 c -64,-30 -82,-57 -63,-92 19,-36 43,-40 105,-19 85,30 104,45 104,83 0,65 -47,74 -146,28 z"
       id="path3044" />
    <path
       d="m 20895,13933 c -60,-25 -118,-52 -127,-60 -38,-34 -12,-97 38,-95 26,1 155,49 242,89 39,19 51,53 28,88 -23,35 -51,31 -181,-22 z"
       id="path3046" />
    <path
       d="m 20445,13754 c -145,-59 -171,-89 -121,-139 23,-23 27,-24 68,-11 57,17 220,85 236,98 15,13 16,70 0,86 -21,21 -70,12 -183,-34 z"
       id="path3048" />
    <path
       d="m 20001,13575 c -57,-24 -113,-50 -123,-59 -37,-32 -15,-96 32,-96 36,0 245,82 271,106 23,21 24,42 3,72 -22,32 -62,27 -183,-23 z"
       id="path3050" />
    <path
       d="m 19564,13397 c -99,-40 -132,-58 -143,-78 -13,-24 -13,-29 2,-53 12,-18 26,-26 45,-26 31,1 238,82 264,104 21,18 24,69 6,83 -30,23 -52,19 -174,-30 z"
       id="path3052" />
    <path
       d="m 19122,13221 c -67,-27 -129,-55 -137,-61 -35,-29 -5,-100 41,-100 11,0 71,21 134,46 111,43 150,70 150,101 0,15 -44,63 -57,63 -4,0 -63,-22 -131,-49 z"
       id="path3054" />
    <path
       d="m 18677,13041 c -128,-51 -157,-70 -157,-101 0,-25 34,-60 58,-60 25,0 243,89 265,107 24,23 22,68 -5,87 -12,9 -27,16 -33,16 -5,-1 -63,-22 -128,-49 z"
       id="path3056" />
    <path
       d="m 18229,12862 c -64,-26 -124,-53 -133,-61 -34,-29 -8,-101 37,-101 28,0 249,92 269,112 10,10 18,25 18,33 0,19 -44,65 -62,64 -7,0 -65,-21 -129,-47 z"
       id="path3058" />
    <path
       d="m 17772,12678 c -135,-55 -156,-75 -134,-123 20,-43 51,-41 179,11 135,55 153,67 153,105 0,29 -31,60 -60,58 -8,0 -71,-24 -138,-51 z"
       id="path3060" />
    <path
       d="m 17335,12503 c -60,-25 -118,-52 -128,-61 -26,-23 -19,-73 13,-90 23,-13 35,-11 145,32 129,50 171,81 159,119 -8,28 -32,47 -58,46 -12,0 -70,-21 -131,-46 z"
       id="path3062" />
    <path
       d="m 16880,12320 c -121,-51 -147,-73 -136,-115 13,-51 45,-50 187,6 127,50 149,66 149,107 0,26 -31,52 -61,51 -13,0 -76,-23 -139,-49 z"
       id="path3064" />
    <path
       d="m 16436,12140 c -65,-27 -123,-54 -127,-62 -17,-26 -10,-67 15,-83 22,-15 28,-14 77,3 100,35 208,83 220,98 17,21 14,66 -7,81 -28,20 -51,16 -178,-37 z"
       id="path3066" />
    <path
       d="m 15995,11964 c -60,-25 -118,-53 -127,-61 -38,-34 -12,-97 38,-95 35,1 237,82 265,105 39,34 12,97 -42,97 -13,-1 -73,-21 -134,-46 z"
       id="path3068" />
    <path
       d="m 15540,11781 c -92,-38 -118,-53 -128,-75 -19,-38 5,-76 49,-76 29,0 241,81 267,102 15,13 16,70 0,86 -21,21 -70,11 -188,-37 z"
       id="path3070" />
    <path
       d="m 15102,11606 c -57,-23 -112,-50 -122,-59 -39,-33 -13,-97 38,-97 30,0 240,85 263,106 40,36 10,95 -47,93 -16,0 -75,-20 -132,-43 z"
       id="path3072" />
    <path
       d="m 14664,11427 c -99,-40 -132,-58 -143,-78 -13,-24 -13,-29 2,-53 12,-18 26,-26 45,-26 33,0 262,94 274,112 12,20 10,64 -4,75 -30,23 -52,19 -174,-30 z"
       id="path3074" />
    <path
       d="m 14220,11250 c -69,-27 -131,-57 -137,-67 -28,-37 -2,-93 43,-93 34,0 248,90 267,112 24,29 21,53 -9,77 -15,12 -29,21 -33,21 -3,0 -62,-23 -131,-50 z"
       id="path3076" />
    <path
       d="m 13777,11071 c -137,-55 -166,-77 -151,-118 18,-52 48,-51 180,1 134,54 154,68 154,107 0,27 -31,60 -55,59 -5,-1 -63,-22 -128,-49 z"
       id="path3078" />
    <path
       d="m 13329,10892 c -64,-26 -124,-53 -133,-61 -34,-29 -8,-101 37,-101 31,0 252,92 270,112 9,11 17,29 17,39 0,24 -35,59 -57,59 -10,-1 -70,-22 -134,-48 z"
       id="path3080" />
    <path
       d="m 12875,10709 c -120,-49 -145,-67 -145,-101 0,-22 34,-58 55,-58 23,0 247,91 268,108 24,21 22,67 -5,86 -31,22 -38,21 -173,-35 z"
       id="path3082" />
    <path
       d="m 12435,10533 c -60,-25 -118,-52 -128,-61 -26,-23 -19,-73 13,-90 23,-13 35,-10 147,33 162,63 193,95 143,145 -28,28 -49,25 -175,-27 z"
       id="path3084" />
    <path
       d="m 11980,10350 c -146,-61 -175,-100 -106,-145 23,-16 30,-14 143,30 65,25 128,53 141,61 45,29 17,105 -39,103 -13,-1 -76,-23 -139,-49 z"
       id="path3086" />
    <path
       d="m 12396,10098 c 36,-79 78,-170 94,-203 l 28,-60 1,44 c 1,56 9,50 93,-77 227,-340 370,-717 423,-1117 22,-164 22,-475 1,-625 -23,-158 -62,-324 -108,-460 -49,-144 -180,-408 -258,-520 l -60,-84 v 44 c 0,44 -4,39 -101,-148 -56,-107 -99,-195 -97,-198 4,-4 346,201 363,218 7,6 -8,9 -43,6 -28,-1 -52,-2 -52,0 0,2 29,45 63,95 204,294 329,623 388,1016 26,173 28,487 4,666 -56,427 -229,869 -474,1214 -71,100 -71,94 -12,90 28,-2 51,-3 51,-2 0,4 -359,243 -364,243 -3,0 24,-64 60,-142 z"
       id="path3088" />
    <path
       d="m 11536,10170 c -65,-27 -123,-54 -127,-62 -14,-21 -10,-65 6,-78 25,-21 64,-14 180,35 138,57 164,83 129,133 -22,32 -54,28 -188,-28 z"
       id="path3090" />
    <path
       d="m 11096,9995 c -120,-49 -146,-67 -146,-101 0,-30 43,-64 73,-56 48,12 229,90 248,105 39,34 11,98 -42,96 -13,0 -73,-20 -133,-44 z"
       id="path3092" />
    <path
       d="m 1026,9985 c -9,-14 -34,-32 -55,-41 -26,-10 -43,-25 -52,-45 -14,-36 -6,-48 42,-55 39,-7 83,21 102,65 l 11,26 4,-27 c 4,-34 18,-35 48,-7 21,20 81,38 131,39 30,0 166,-171 179,-228 10,-39 85,-148 166,-239 20,-23 44,-58 52,-78 9,-20 29,-54 46,-75 17,-21 41,-71 54,-112 14,-40 34,-93 45,-118 21,-47 28,-124 12,-135 -14,-8 -21,7 -45,98 -26,99 -46,113 -46,33 0,-31 -4,-56 -10,-56 -13,0 -49,59 -87,140 -32,69 -65,106 -82,95 -13,-8 -4,-51 18,-85 23,-34 51,-98 51,-114 0,-7 15,-42 34,-77 37,-69 60,-149 71,-239 6,-47 4,-59 -13,-80 l -20,-25 -12,30 c -7,17 -14,47 -17,68 -7,47 -23,59 -23,16 0,-17 -11,-52 -25,-78 -13,-25 -33,-77 -44,-116 -21,-77 -63,-190 -86,-235 -12,-23 -72,-66 -81,-58 -1,2 3,29 8,61 8,43 7,61 -2,72 -10,12 -16,13 -26,4 -8,-6 -14,-17 -14,-24 0,-21 -83,-175 -131,-243 -24,-35 -57,-83 -74,-106 -16,-24 -38,-55 -49,-70 -10,-15 -16,-29 -13,-33 18,-17 103,66 207,202 41,52 50,45 22,-18 -14,-31 -17,-49 -10,-61 7,-13 5,-23 -7,-36 -22,-25 -16,-65 10,-65 14,0 27,15 45,51 30,61 168,267 182,273 6,2 -5,-25 -25,-60 -91,-166 -117,-222 -117,-256 0,-32 2,-35 24,-29 30,7 62,-17 120,-92 53,-70 77,-118 100,-202 10,-36 27,-96 37,-135 11,-38 26,-90 34,-115 25,-76 26,-75 -78,-88 -96,-12 -171,-38 -218,-76 -15,-12 -35,-26 -45,-32 -40,-24 -4,-23 42,1 57,29 191,65 244,65 72,0 136,-27 174,-73 20,-24 46,-49 59,-56 14,-7 46,-50 72,-94 60,-101 80,-128 178,-231 42,-45 77,-89 77,-97 0,-30 -27,-51 -95,-75 -87,-30 -91,-30 -104,6 -12,35 -16,36 -56,10 -36,-24 -53,-25 -76,-4 -12,10 -45,17 -109,20 -52,3 -104,11 -121,19 -16,9 -55,15 -93,15 -55,0 -67,3 -76,20 -14,26 -33,25 -79,-5 -34,-23 -42,-24 -65,-14 -22,10 -33,10 -61,-4 -52,-25 -122,-93 -147,-145 -13,-25 -39,-63 -59,-86 -29,-33 -39,-38 -51,-29 -23,19 -26,16 -111,-142 -26,-49 -55,-118 -62,-148 -3,-17 -18,-35 -36,-45 -21,-12 -33,-30 -44,-66 -30,-101 -18,-107 82,-40 37,26 78,50 92,53 16,5 35,27 59,71 19,36 58,94 86,130 28,36 64,82 79,103 31,42 58,58 134,80 52,16 53,16 110,-15 32,-16 79,-43 105,-59 25,-17 68,-33 96,-38 45,-7 141,-56 142,-73 0,-4 -23,-43 -51,-88 -32,-51 -57,-80 -69,-80 -9,0 -29,-9 -44,-21 -14,-11 -43,-22 -64,-23 -21,-2 -82,-24 -135,-51 -77,-37 -107,-58 -144,-101 -26,-30 -56,-57 -67,-60 -11,-4 -70,-57 -131,-119 -70,-71 -126,-118 -153,-130 l -44,-20 27,-22 c 50,-43 120,-24 210,58 47,42 97,75 164,106 91,44 103,47 236,59 84,7 144,9 150,3 5,-6 5,-21 -3,-42 -16,-46 -15,-57 9,-83 12,-12 38,-55 59,-96 20,-40 55,-106 76,-147 32,-61 39,-86 42,-145 2,-39 8,-75 12,-80 16,-17 41,43 47,113 5,58 1,89 -22,174 l -27,103 26,62 c 35,84 34,130 -4,167 -25,24 -29,35 -27,69 3,42 28,66 70,66 26,0 57,18 94,53 38,36 51,30 88,-42 34,-67 64,-103 183,-226 60,-61 137,-147 171,-190 84,-106 320,-339 370,-364 22,-12 43,-25 46,-31 4,-6 24,-18 46,-26 l 38,-16 -3,-76 c -5,-90 -29,-166 -79,-242 -39,-62 -161,-184 -193,-194 -33,-10 -47,-54 -51,-161 l -5,-100 52,-79 c 28,-43 54,-93 57,-110 6,-37 -28,-144 -60,-190 -12,-17 -23,-33 -25,-36 -2,-3 -47,-8 -100,-11 -100,-7 -187,-31 -374,-105 -107,-42 -128,-43 -128,-9 0,66 -62,28 -114,-69 -28,-52 -29,-57 -16,-98 7,-24 18,-49 23,-56 12,-15 68,-16 103,0 22,10 25,17 21,43 -5,30 -4,31 86,70 50,22 129,59 175,82 103,53 211,81 246,65 20,-9 26,-20 31,-69 11,-100 22,-123 70,-144 23,-10 65,-23 93,-30 88,-18 97,-32 97,-140 v -93 l -75,-52 c -67,-47 -75,-56 -86,-98 -7,-26 -16,-52 -22,-59 -5,-7 -19,-46 -32,-87 -24,-81 -23,-151 4,-213 21,-49 111,-143 159,-166 53,-26 131,-105 152,-153 26,-64 13,-253 -24,-356 -35,-94 -118,-180 -206,-210 -33,-12 -85,-30 -115,-41 -30,-11 -66,-20 -79,-21 -13,0 -64,-18 -115,-41 -110,-49 -186,-76 -246,-85 -25,-4 -58,-14 -75,-22 -16,-8 -86,-26 -155,-39 -68,-13 -138,-28 -155,-33 -46,-15 -232,-57 -308,-71 -98,-17 -139,-58 -108,-108 17,-27 198,-32 321,-11 58,11 152,26 210,35 182,27 517,131 729,226 35,16 69,29 75,29 30,0 140,52 175,82 61,52 162,178 187,233 12,28 33,110 45,183 l 21,132 -21,93 c -23,97 -55,147 -128,199 -102,73 -195,148 -214,172 -32,40 -36,104 -10,146 11,19 21,46 21,59 0,16 21,43 67,86 75,70 88,102 102,243 11,121 -8,174 -81,219 -35,22 -72,36 -107,40 -72,8 -81,20 -81,103 0,67 1,69 40,102 23,20 51,59 67,94 23,51 27,72 27,149 v 90 l -49,70 c -72,106 -77,122 -57,185 9,29 27,62 41,74 82,73 203,198 229,236 40,60 85,209 86,284 1,65 11,54 -119,138 -102,67 -424,373 -512,487 -37,47 -90,111 -118,141 -29,31 -60,71 -70,90 -10,19 -32,55 -49,80 -17,25 -48,82 -68,128 -46,102 -44,109 58,177 114,76 168,167 181,304 5,56 4,65 -14,80 -12,9 -31,45 -44,81 -12,36 -30,76 -39,90 -32,49 -80,140 -80,152 0,18 -96,166 -133,206 -17,17 -41,32 -53,32 -32,0 -70,35 -97,88 -13,26 -29,56 -35,67 -16,29 -78,250 -92,324 -17,94 -44,159 -95,226 -61,81 -65,99 -28,138 16,18 49,73 72,122 24,50 58,122 77,160 19,39 43,108 54,155 10,47 26,114 34,150 8,36 23,119 32,185 9,66 23,147 30,180 16,78 5,133 -41,201 -19,28 -35,57 -35,66 0,24 -53,117 -132,233 -40,58 -86,129 -101,158 -16,28 -32,54 -36,57 -4,3 -26,30 -48,60 -57,77 -129,149 -194,193 -49,34 -60,37 -78,27 -14,-7 -42,-9 -75,-5 -32,4 -62,3 -74,-4 -15,-8 -23,-7 -32,4 -19,23 -56,18 -74,-10 z m 624,-1451 c 0,-43 -20,-71 -41,-59 -13,8 -5,75 12,108 15,28 29,5 29,-49 z m 470,-2044 c -8,-5 -19,-10 -25,-10 -5,0 -3,5 5,10 8,5 20,10 25,10 6,0 3,-5 -5,-10 z m -104,-302 c 27,-27 30,-50 9,-68 -12,-10 -14,-24 -9,-57 5,-34 3,-43 -9,-43 -8,0 -20,7 -28,16 -8,10 -22,14 -39,10 -35,-6 -70,18 -70,49 0,39 72,111 114,114 4,1 19,-9 32,-21 z m -321,-168 c 7,-22 -9,-50 -29,-50 -6,0 -38,-14 -71,-30 -33,-17 -71,-30 -86,-30 -14,0 -37,-8 -50,-18 -13,-10 -55,-33 -93,-51 -38,-18 -78,-43 -88,-57 -18,-22 -58,-34 -58,-17 0,4 21,29 47,55 33,34 55,48 74,48 15,0 32,7 40,16 7,9 49,34 92,57 44,23 100,54 126,68 58,33 87,36 96,9 z"
       id="path3094" />
    <path
       d="m 504,9969 c -3,-5 1,-11 8,-13 7,-2 58,-15 113,-28 55,-14 114,-30 131,-36 34,-11 66,0 49,17 -15,14 -295,70 -301,60 z"
       id="path3096" />
    <path
       d="m 1170,7258 c -76,-81 -68,-115 10,-42 27,26 50,51 50,55 0,18 -40,8 -60,-13 z"
       id="path3114" />
    <path
       d="m 22100,6700 c -151,-9 -583,-18 -970,-20 -140,-1 -320,-5 -400,-10 -80,-5 -271,-12 -425,-15 -154,-3 -309,-8 -345,-10 -39,-4 -98,1 -148,10 -68,13 -133,15 -365,11 -222,-5 -1278,-17 -1347,-17 -8,0 -373,0 -810,-1 -437,0 -1227,0 -1755,0 -528,0 -1124,1 -1325,0 -201,0 -698,1 -1105,1 -1896,4 -1969,3 -1980,-15 -5,-10 -25,-34 -42,-54 -32,-36 -42,-60 -25,-60 20,0 43,-27 36,-43 -4,-12 -17,-17 -45,-17 -38,0 -40,-2 -63,-52 l -23,-53 35,-12 c 19,-7 40,-17 47,-23 7,-6 34,-22 61,-36 27,-14 58,-34 69,-44 11,-9 39,-20 61,-24 23,-3 61,-17 85,-31 45,-25 89,-33 89,-15 0,6 10,10 23,10 36,0 207,45 300,79 75,28 91,31 124,22 29,-8 40,-7 53,4 23,21 116,19 159,-3 44,-22 62,-49 42,-62 -12,-7 -8,-10 15,-15 16,-4 43,-14 60,-22 24,-12 35,-13 52,-4 11,6 47,11 80,11 32,0 84,9 116,20 48,16 77,19 189,16 149,-5 159,-6 317,-48 182,-48 197,-57 138,-85 -114,-56 -459,-55 -679,2 -71,19 -69,19 -69,-5 0,-13 12,-26 35,-37 40,-19 45,-33 13,-33 -44,0 -173,31 -198,48 -39,27 -83,43 -91,35 -4,-5 -10,-18 -14,-30 -6,-21 -3,-23 26,-23 18,0 40,-7 49,-15 10,-9 30,-18 46,-21 35,-6 38,-9 31,-27 -6,-17 -133,-92 -171,-101 -15,-4 -26,-10 -22,-13 7,-8 92,16 138,38 20,10 47,33 61,51 l 26,32 88,-17 c 48,-10 174,-22 278,-28 257,-13 370,-24 435,-42 60,-17 241,-29 261,-17 26,17 -5,30 -69,30 -37,0 -83,5 -102,10 -19,6 -71,11 -115,11 -120,2 -149,25 -59,48 69,18 159,67 183,99 19,28 24,29 128,35 59,4 134,13 166,22 32,8 74,15 93,15 19,0 51,9 71,20 33,18 56,19 286,19 237,-1 249,0 263,19 7,11 32,27 56,36 23,10 55,28 71,42 35,29 51,30 164,3 96,-23 124,-39 116,-70 -4,-14 0,-19 16,-19 12,0 30,-5 41,-12 15,-10 26,-9 55,5 28,13 52,16 108,12 93,-7 207,-26 231,-38 10,-5 64,-13 120,-18 114,-10 198,-29 196,-44 -5,-32 -365,-55 -464,-29 -62,16 -76,13 -60,-14 10,-16 149,-69 186,-71 9,-1 29,-6 45,-12 22,-8 24,-12 13,-19 -28,-17 -116,-21 -235,-10 -269,25 -292,31 -267,70 6,11 12,24 12,30 0,19 -42,10 -72,-15 -22,-19 -41,-25 -77,-25 -74,0 -97,39 -38,64 29,13 18,13 -105,8 -78,-3 -174,0 -225,6 -186,24 -267,16 -176,-17 26,-10 99,-15 233,-18 211,-4 219,-6 223,-59 2,-25 -4,-32 -43,-51 -58,-29 -245,-57 -323,-49 -84,8 -105,15 -110,37 -4,16 -15,19 -59,19 -29,1 -71,8 -93,16 -67,26 -89,29 -83,12 4,-8 3,-20 -1,-27 -8,-12 -143,-41 -196,-41 -41,0 -67,-9 -59,-21 8,-14 71,-11 144,7 89,21 182,19 254,-6 107,-37 220,-51 331,-41 94,8 158,26 308,83 36,14 46,13 155,-15 104,-26 136,-30 297,-33 199,-3 258,7 428,75 43,17 88,31 101,31 13,0 46,6 72,14 27,8 75,20 107,27 60,13 109,38 75,39 -9,0 -44,-7 -78,-16 -34,-8 -64,-14 -66,-11 -9,9 62,46 108,56 57,13 85,6 66,-17 -12,-14 -9,-14 22,-7 53,12 69,10 143,-19 78,-30 222,-48 307,-39 73,7 172,58 180,93 7,30 31,36 71,20 33,-14 37,-36 12,-57 -36,-28 -140,-77 -193,-90 -30,-8 -79,-21 -108,-28 -91,-23 -335,-40 -395,-28 -60,13 -77,5 -77,-37 0,-35 46,-77 97,-86 59,-11 242,5 343,31 129,32 145,39 171,74 18,24 28,29 46,25 18,-5 32,1 51,20 15,14 43,31 62,38 19,6 47,24 61,39 43,47 72,47 153,3 150,-81 281,-140 326,-149 19,-4 91,-25 160,-46 161,-51 195,-59 310,-71 100,-10 303,-19 260,-12 -14,3 -84,16 -156,29 -72,14 -152,25 -178,25 -27,0 -63,8 -86,20 -22,11 -50,20 -62,20 -13,0 -32,6 -43,14 -28,19 -173,76 -194,76 -9,0 -21,4 -26,8 -6,5 -48,24 -95,42 -153,58 -163,80 -40,80 42,0 96,9 152,26 l 87,27 73,-22 c 40,-13 107,-38 150,-57 l 76,-35 134,3 c 95,3 159,10 223,27 118,29 155,48 184,94 13,20 30,37 36,37 7,0 41,14 76,32 87,44 172,49 270,18 75,-24 96,-40 54,-40 -43,0 -24,-24 26,-32 24,-4 93,-10 154,-13 60,-3 118,-8 128,-11 10,-3 36,-3 58,1 30,5 39,11 35,22 -4,9 5,20 25,31 43,24 79,52 79,62 0,12 -47,-3 -104,-34 -51,-27 -81,-33 -91,-16 -3,5 25,25 64,44 38,20 78,48 90,64 l 20,29 h 225 c 236,1 255,4 356,52 52,25 63,26 200,25 114,-1 160,-6 215,-22 134,-39 397,-37 462,4 12,7 23,24 25,36 2,16 11,24 27,26 21,3 118,-22 186,-49 157,-61 145,-58 311,-61 175,-2 226,7 270,51 35,34 80,31 163,-12 93,-48 154,-61 259,-52 91,8 193,34 227,59 33,24 13,26 -65,5 -80,-21 -277,-28 -265,-9 3,6 15,10 27,10 25,0 248,106 248,118 0,12 -30,37 -55,47 -14,5 -16,9 -6,12 7,3 84,-11 170,-31 285,-68 295,-70 299,-57 5,16 124,14 197,-4 33,-8 86,-14 118,-15 51,0 60,-3 64,-21 5,-18 11,-19 45,-14 22,4 48,15 58,25 18,18 57,23 260,35 61,4 124,15 176,32 86,27 133,27 170,-2 19,-15 19,-15 -1,-30 -11,-9 -35,-20 -55,-24 -63,-16 -294,-45 -345,-42 -27,1 -67,-1 -88,-5 -56,-9 -32,-25 47,-31 100,-9 97,-22 -14,-58 -95,-31 -131,-48 -121,-58 5,-5 35,-4 77,3 38,7 89,15 114,20 49,8 157,35 232,56 26,8 59,14 74,14 17,0 42,14 69,39 83,77 110,85 285,83 153,-1 223,8 236,30 4,6 10,25 13,42 7,34 2,32 188,56 45,6 98,17 118,26 34,14 54,38 42,50 -7,7 -436,5 -722,-3 -126,-4 -241,-7 -255,-6 -61,1 -577,14 -690,18 -69,2 -186,0 -260,-5 z m -635,-129 c -14,-13 -115,-25 -115,-14 0,18 14,23 69,23 33,0 51,-4 46,-9 z m -4415,-21 c 220,-15 268,-27 253,-66 -9,-23 -133,-40 -165,-22 -13,7 -48,14 -78,14 -123,3 -322,24 -355,38 -47,20 -44,34 8,33 23,0 65,5 92,11 28,6 64,8 80,6 17,-3 91,-9 165,-14 z m -5627,-29 c 32,-15 54,-30 51,-34 -4,-4 -34,-7 -66,-7 -60,0 -79,-15 -30,-25 15,-3 43,-11 64,-17 20,-6 56,-8 82,-4 41,6 53,3 104,-26 31,-18 79,-40 106,-49 28,-8 51,-20 53,-26 6,-18 -25,-42 -70,-54 -34,-9 -47,-8 -72,4 -16,9 -68,23 -115,32 -123,23 -123,23 -116,51 l 6,24 -69,-6 c -58,-6 -83,-3 -141,16 l -71,23 -23,-22 c -23,-21 -60,-28 -70,-12 -8,12 13,28 49,37 17,4 60,20 97,36 37,15 76,28 87,28 18,0 19,3 9,26 -24,52 29,54 135,5 z m 7467,29 c 0,-5 -9,-10 -20,-10 -11,0 -20,5 -20,10 0,6 9,10 20,10 11,0 20,-4 20,-10 z m 336,-5 c 19,-15 19,-15 0,-30 -26,-20 -100,-20 -116,0 -16,19 -5,31 30,38 48,8 66,7 86,-8 z m -6003,-12 c 16,-9 6,-31 -18,-37 -46,-12 -154,25 -114,38 37,13 107,13 132,-1 z m 456,-24 c 160,-46 184,-83 54,-81 -141,2 -323,48 -323,81 0,10 6,23 13,30 18,19 131,6 256,-30 z m 1721,31 c 36,-6 85,-18 110,-26 25,-9 51,-18 59,-20 11,-4 12,-7 3,-16 -9,-9 -44,-9 -142,1 -165,15 -218,36 -152,59 36,14 45,14 122,2 z m 2866,-2 c 4,-6 -1,-17 -11,-24 -15,-11 -16,-16 -5,-29 7,-8 19,-15 28,-15 8,0 58,-13 111,-29 53,-16 109,-32 126,-36 78,-18 72,-49 -14,-75 -103,-31 -258,-23 -307,16 -17,12 -6,14 93,12 141,-4 150,13 16,29 -157,18 -167,25 -113,86 l 30,34 -23,11 -22,10 25,10 c 34,14 57,14 66,0 z m 287,5 c -7,-2 -19,-2 -25,0 -7,3 -2,5 12,5 14,0 19,-2 13,-5 z m -4517,-13 c 8,0 14,-4 14,-10 0,-11 -40,-13 -65,-4 -13,5 -14,8 -3,15 7,5 19,7 26,4 8,-3 20,-5 28,-5 z m 1022,-12 c 3,-13 -3,-18 -22,-18 -27,0 -41,14 -31,31 10,16 49,6 53,-13 z m 717,12 c 27,0 36,-3 26,-9 -18,-11 -122,-2 -136,12 -7,6 3,8 30,3 22,-3 58,-6 80,-6 z m -2797,-17 c 3,-10 -13,-13 -57,-13 -58,0 -89,14 -54,23 33,9 106,2 111,-10 z m 1132,7 c 0,-13 -20,-13 -40,0 -12,8 -9,10 13,10 15,0 27,-4 27,-10 z m 6564,4 c 9,-3 16,-12 16,-19 0,-8 -25,-15 -76,-20 -63,-6 -79,-4 -92,9 -21,21 -10,25 115,34 12,1 28,-1 37,-4 z m -8060,-23 c 3,-5 23,-11 43,-14 42,-5 192,-49 212,-61 17,-11 -3,-33 -37,-40 -57,-12 -322,73 -322,103 0,17 95,27 104,12 z m 2290,3 c 26,-10 19,-43 -11,-55 -27,-10 -134,-5 -168,7 -21,8 -14,26 16,41 25,13 135,18 163,7 z m -2484,-19 c 33,-17 37,-27 17,-43 -31,-26 -145,-23 -154,5 -3,9 78,52 100,53 4,0 21,-7 37,-15 z m 5706,4 c 14,-24 -23,-40 -99,-44 -42,-2 -77,0 -77,4 0,14 93,49 132,50 20,1 40,-4 44,-10 z m 2107,-8 c 15,-15 -2,-31 -31,-31 -15,0 -43,-4 -62,-10 -37,-11 -74,-5 -64,11 3,5 22,18 42,29 38,20 95,21 115,1 z m -4938,-6 c 22,-8 52,-15 67,-15 15,0 30,-5 34,-11 5,-9 -16,-11 -82,-7 -85,5 -144,22 -144,40 0,13 81,8 125,-7 z m 1265,0 c 10,-12 8,-16 -12,-24 -22,-8 -78,-15 -102,-12 -13,2 15,32 39,41 32,13 61,11 75,-5 z m -605,-5 c 7,-11 -11,-40 -24,-40 -4,0 -16,6 -27,14 -18,14 -18,15 6,25 33,13 38,13 45,1 z m 718,-16 c 30,-14 67,-58 67,-79 0,-4 -30,-4 -66,0 -54,5 -68,4 -77,-9 -7,-9 -27,-19 -44,-22 -29,-6 -33,-4 -33,15 0,16 8,23 30,28 21,4 36,16 47,37 13,26 30,45 40,46 1,0 18,-7 36,-16 z m -4858,-25 c 10,-10 -65,-12 -90,-3 -13,5 -14,8 -3,15 15,10 78,1 93,-12 z m 5604,10 c 25,-9 32,-16 28,-31 -5,-19 -2,-20 96,-13 56,3 131,11 166,16 76,12 196,2 212,-17 19,-23 -7,-49 -82,-84 -90,-41 -187,-51 -254,-26 -24,10 -86,27 -137,40 -83,19 -93,24 -90,43 2,11 -4,23 -13,26 -18,8 -20,28 -3,45 15,15 36,15 77,1 z m 3636,1 c 7,-11 -81,-51 -151,-67 -25,-6 -104,14 -104,26 0,5 39,14 88,21 48,7 96,16 107,21 28,11 53,11 60,-1 z m -8850,-20 c 0,-13 -20,-15 -126,-14 -137,1 -194,12 -124,25 22,3 87,6 145,5 86,-1 105,-4 105,-16 z m 1980,8 c 14,-6 28,-22 31,-35 4,-14 16,-26 31,-29 13,-4 22,-11 20,-18 -7,-21 -76,-35 -238,-46 -159,-11 -250,-8 -278,9 -31,20 74,27 238,18 31,-2 35,1 43,30 5,21 22,42 46,58 40,28 68,31 107,13 z m 5134,-2 c 14,-17 8,-22 -56,-41 -47,-14 -83,-12 -83,5 0,5 12,18 28,29 31,24 94,28 111,7 z m -6722,-22 c 73,-31 17,-64 -72,-42 -56,14 -65,35 -25,55 26,13 38,11 97,-13 z m 696,6 c 21,-20 -18,-37 -101,-44 -104,-9 -143,6 -89,35 52,29 166,34 190,9 z m 2555,-6 c 2,-17 -6,-25 -45,-39 -56,-20 -115,-25 -120,-9 -2,6 18,26 44,43 58,38 116,41 121,5 z m 232,16 c 0,-5 -9,-10 -20,-10 -11,0 -20,5 -20,10 0,6 9,10 20,10 11,0 20,-4 20,-10 z m -1331,-19 c 63,-6 116,-13 119,-16 13,-12 -11,-33 -53,-45 -84,-24 -328,10 -342,48 -14,35 24,37 276,13 z m 286,-17 c 24,-24 5,-37 -62,-42 -52,-4 -57,-3 -43,11 15,16 69,47 82,47 4,0 14,-7 23,-16 z m -2580,-36 c 30,-14 32,-24 5,-33 -25,-8 -108,4 -116,17 -16,26 64,38 111,16 z m 3655,-18 c 108,-19 133,-21 185,-11 38,7 138,10 276,7 193,-4 222,-6 264,-25 55,-24 76,-26 122,-9 28,10 36,10 43,-2 6,-10 12,-11 22,-3 51,41 301,68 333,37 21,-22 19,-33 -10,-46 -14,-6 -24,-16 -22,-22 6,-20 140,-48 267,-56 69,-5 139,-13 155,-20 l 30,-12 -29,-15 c -38,-20 -191,-49 -301,-58 -78,-6 -105,-3 -202,20 -61,15 -119,32 -129,39 -16,12 -15,15 6,44 13,17 40,37 59,43 l 36,12 -30,13 c -47,20 -74,17 -84,-10 -14,-35 -82,-59 -129,-46 -51,14 -52,13 -52,-14 0,-13 -8,-27 -17,-30 -9,-4 -80,-9 -157,-13 -137,-6 -350,12 -435,37 -24,7 -36,4 -55,-11 -29,-23 -57,-24 -159,-4 -92,18 -97,18 -97,6 0,-10 54,-31 82,-31 10,0 35,-7 56,-15 117,-49 -189,-45 -313,4 -82,33 -94,42 -97,74 -3,32 -3,32 -53,29 -36,-2 -57,-10 -75,-27 -48,-46 -102,-58 -235,-51 -150,8 -245,23 -267,42 -15,14 -14,19 14,60 l 30,45 92,-6 c 50,-4 116,-10 146,-15 30,-5 112,-12 181,-16 118,-6 131,-5 210,20 46,15 100,35 119,46 39,22 41,22 220,-10 z m -2655,-12 c 22,-11 64,-28 93,-39 28,-11 52,-24 52,-28 0,-27 -159,-50 -347,-51 -84,0 -103,3 -103,15 0,8 12,18 28,21 43,11 124,54 160,86 36,31 45,31 117,-4 z m -575,-24 c 42,-28 48,-29 144,-27 64,2 96,-1 90,-7 -8,-8 -179,-12 -324,-8 -25,1 -55,-2 -67,-7 -36,-12 -30,25 9,58 41,35 86,32 148,-9 z m 5160,12 c 0,-3 -4,-8 -10,-11 -5,-3 -10,-1 -10,4 0,6 5,11 10,11 6,0 10,-2 10,-4 z m -6461,-35 c 27,-17 -6,-38 -83,-51 -87,-15 -130,-6 -81,16 17,7 41,13 55,14 14,0 36,7 50,15 29,17 40,18 59,6 z m 5868,-7 c -3,-3 -12,-4 -19,-1 -8,3 -5,6 6,6 11,1 17,-2 13,-5 z m -6070,-50 c -3,-3 -12,-4 -19,-1 -8,3 -5,6 6,6 11,1 17,-2 13,-5 z"
       id="path3116" />
    <path
       d="m 14118,6333 c 6,-2 18,-2 25,0 6,3 1,5 -13,5 -14,0 -19,-2 -12,-5 z"
       id="path3118" />
    <path
       d="m 21730,6483 c 1,-24 38,-50 65,-46 17,2 37,-1 45,-7 13,-9 13,-11 0,-20 -13,-8 -13,-11 0,-23 50,-47 183,-67 283,-43 38,9 79,16 93,16 14,0 46,6 72,14 26,8 60,17 75,21 15,3 25,10 22,15 -4,6 -10,8 -15,5 -22,-14 -537,45 -622,71 -10,3 -18,2 -18,-3 z"
       id="path3120" />
    <path
       d="m 2955,6414 c -61,-23 -151,-63 -241,-105 -67,-31 -83,-43 -89,-66 -5,-22 -2,-32 20,-50 32,-28 56,-29 109,-4 23,10 81,37 129,60 49,22 94,41 101,41 7,0 25,9 40,21 32,25 36,77 8,102 -22,20 -26,20 -77,1 z"
       id="path3122" />
    <path
       d="m 22470,6270 c -8,-5 -11,-12 -8,-16 10,-9 58,4 58,16 0,13 -30,13 -50,0 z"
       id="path3124" />
    <path
       d="m 19190,6228 c 0,-4 5,-10 10,-13 16,-10 12,-32 -7,-40 -29,-11 -225,-45 -260,-45 -18,0 -33,-4 -33,-10 0,-11 1,-11 74,-14 39,-1 52,-7 70,-29 15,-19 36,-29 71,-36 28,-5 66,-16 85,-24 61,-26 564,-56 694,-43 105,12 69,28 -58,26 -130,-1 -305,11 -324,23 -7,5 -10,17 -7,28 6,18 -1,19 -148,18 -124,0 -161,3 -186,15 -50,26 -39,42 52,72 57,18 117,29 197,35 135,9 120,7 120,18 0,5 -13,12 -29,16 -40,9 -321,12 -321,3 z"
       id="path3126" />
    <path
       d="m 19920,6225 c -16,-19 -134,-85 -153,-85 -8,0 -25,-9 -38,-20 l -24,-19 23,-1 c 32,0 135,45 194,86 28,19 57,34 65,34 8,0 11,5 8,10 -9,15 -61,12 -75,-5 z"
       id="path3128" />
    <path
       d="m 18130,6221 c 0,-9 52,-31 73,-31 5,0 -2,9 -16,20 -26,21 -57,27 -57,11 z"
       id="path3130" />
    <path
       d="m 20145,6167 c 22,-14 69,-31 105,-37 36,-7 83,-18 105,-26 23,-8 49,-14 58,-14 10,0 35,-9 56,-19 34,-18 50,-19 192,-11 154,8 274,31 341,66 41,21 31,25 -33,13 -29,-6 -90,-15 -134,-20 -44,-5 -92,-14 -108,-19 -45,-15 -218,5 -372,44 -59,15 -162,35 -220,43 -29,4 -29,4 10,-20 z"
       id="path3132" />
    <path
       d="m 2395,6164 c -11,-3 -57,-24 -103,-47 -60,-31 -84,-48 -89,-66 -8,-31 6,-52 42,-64 34,-12 124,14 170,48 16,12 45,30 63,39 25,13 32,23 32,46 0,16 -3,31 -7,33 -14,8 -87,15 -108,11 z"
       id="path3134" />
    <path
       d="m 11790,6150 c -28,-4 -39,-9 -30,-13 8,-4 35,-1 60,7 49,15 41,17 -30,6 z"
       id="path3136" />
    <path
       d="m 14580,6151 c -8,-5 -35,-12 -58,-16 -25,-4 -40,-11 -35,-16 5,-5 25,-4 47,2 21,6 44,8 52,5 20,-8 44,3 44,20 0,16 -27,18 -50,5 z"
       id="path3138" />
    <path
       d="m 21465,6140 c 28,-11 57,-19 65,-17 24,5 -21,26 -71,32 l -44,6 z"
       id="path3140" />
    <path
       d="m 10953,6118 c 16,-98 36,-129 97,-156 47,-20 123,-41 190,-52 147,-24 297,-51 314,-56 62,-20 -115,-41 -317,-38 -100,2 -138,-6 -101,-20 26,-10 442,-8 554,3 145,14 270,48 270,73 0,7 38,30 84,52 47,21 93,47 102,57 16,18 16,19 -9,19 -14,0 -45,-8 -69,-18 -24,-11 -65,-24 -93,-30 -27,-6 -85,-18 -127,-27 -114,-25 -262,-15 -416,28 -80,22 -83,34 -13,47 23,4 65,2 103,-6 91,-19 237,-17 347,6 103,21 138,38 51,24 -81,-13 -352,-11 -381,2 -13,6 -49,16 -79,22 -45,8 -59,7 -79,-5 -20,-13 -44,-15 -127,-10 -56,4 -115,12 -130,17 -38,15 -84,59 -84,82 0,15 -8,18 -46,18 h -46 z"
       id="path3142" />
    <path
       d="m 11480,6130 c 32,-10 155,-10 195,0 19,5 -18,8 -95,8 -76,0 -115,-3 -100,-8 z"
       id="path3144" />
    <path
       d="m 13748,6123 c 7,-3 16,-2 19,1 4,3 -2,6 -13,5 -11,0 -14,-3 -6,-6 z"
       id="path3146" />
    <path
       d="m 18808,6123 c 12,-2 32,-2 45,0 12,2 2,4 -23,4 -25,0 -35,-2 -22,-4 z"
       id="path3148" />
    <path
       d="m 19597,6085 c -32,-7 -60,-15 -63,-17 -9,-10 102,5 131,17 39,17 10,17 -68,0 z"
       id="path3150" />
    <path
       d="m 21357,6057 c -20,-31 -131,-63 -266,-77 -135,-13 -347,-13 -411,1 -28,6 -66,8 -84,5 -28,-5 -32,-10 -33,-40 -1,-24 4,-37 16,-41 9,-4 86,-10 171,-15 85,-5 187,-14 225,-20 150,-23 256,-32 420,-37 218,-6 337,11 460,68 22,10 74,27 115,39 126,35 143,41 208,77 92,50 82,83 -12,36 -114,-58 -365,-83 -471,-47 -23,7 -74,20 -115,29 -41,9 -85,22 -97,30 -12,8 -42,15 -66,15 -36,0 -48,-5 -60,-23 z m 172,-61 c 96,-37 131,-48 224,-66 31,-6 57,-15 57,-20 0,-22 -78,-33 -280,-37 -144,-4 -245,-1 -305,7 -49,7 -103,14 -120,15 -44,2 -95,15 -95,25 0,10 80,30 127,31 40,0 133,24 223,57 30,11 60,21 67,21 6,1 52,-15 102,-33 z"
       id="path3152" />
    <path
       d="m 18095,6025 c -33,-25 -103,-67 -155,-92 -89,-43 -103,-47 -220,-58 -166,-16 -245,-13 -368,13 -119,25 -135,27 -130,10 3,-7 29,-16 59,-20 30,-3 86,-13 124,-22 130,-29 425,-17 527,23 42,16 190,101 221,127 37,31 72,30 112,-3 55,-47 157,-118 220,-153 110,-61 113,-72 26,-111 -25,-11 -55,-28 -66,-38 -53,-47 -305,-143 -540,-206 -55,-15 -110,-34 -123,-41 -15,-10 -66,-17 -150,-21 l -127,-5 -113,57 c -62,31 -127,69 -145,83 -18,15 -59,48 -92,72 -33,25 -82,63 -110,86 -90,74 -107,71 -226,-48 -96,-96 -175,-157 -258,-198 -70,-35 -207,-56 -296,-45 -33,4 -91,9 -130,11 -219,12 -447,66 -630,150 -63,29 -172,65 -371,123 -75,22 -124,27 -140,12 -18,-18 -148,-84 -201,-102 -54,-18 -148,-33 -295,-44 -43,-4 -78,-11 -78,-17 0,-6 7,-7 16,-4 8,3 52,5 97,5 201,-3 263,9 402,77 50,24 101,44 113,44 12,0 55,-13 95,-29 39,-17 133,-52 207,-80 74,-27 169,-63 210,-80 126,-50 366,-111 436,-111 22,0 52,-7 68,-15 20,-10 59,-15 132,-15 56,0 132,-7 168,-15 50,-12 127,-15 343,-14 153,1 312,5 353,10 41,4 164,14 272,20 178,12 203,11 250,-4 29,-9 91,-23 138,-31 47,-9 108,-23 135,-32 38,-12 90,-16 215,-16 213,1 263,7 390,49 153,51 254,101 353,176 49,37 93,67 99,67 6,0 43,-15 82,-34 39,-18 89,-39 111,-46 22,-7 63,-26 90,-41 70,-39 367,-118 565,-150 224,-35 245,-37 430,-28 117,5 203,14 234,24 27,8 60,15 72,15 39,0 114,42 120,67 8,31 -8,48 -62,69 -38,14 -67,16 -190,11 -99,-4 -154,-10 -175,-21 -147,-73 -781,-11 -1014,100 -38,18 -90,36 -115,40 -47,7 -114,36 -125,54 -12,19 -40,10 -90,-30 -161,-128 -348,-225 -473,-246 -192,-31 -655,-9 -669,31 -5,17 55,43 162,70 55,14 114,31 130,36 17,6 59,18 95,26 36,8 90,24 120,35 30,11 78,26 106,34 49,13 219,89 317,141 39,20 57,24 95,19 289,-35 362,-40 397,-25 l 30,13 -55,7 c -183,23 -296,42 -307,53 -3,3 2,15 12,26 28,31 11,35 -55,15 -68,-21 -65,-21 -215,41 -49,20 -126,60 -170,88 -122,78 -172,106 -192,106 -10,0 -45,-20 -78,-45 z m -1030,-365 c 140,-110 200,-154 240,-176 48,-27 71,-51 61,-61 -6,-7 -131,-15 -456,-29 -152,-7 -310,1 -310,15 0,4 26,22 58,41 160,94 177,107 307,222 16,15 35,28 40,28 6,0 33,-18 60,-40 z"
       id="path3154" />
    <path
       d="m 22310,5785 c -36,-13 -75,-24 -88,-25 -12,0 -39,-7 -60,-16 -60,-25 -366,-32 -623,-14 -78,6 -145,8 -150,4 -59,-36 311,-104 568,-104 207,0 386,30 490,82 134,67 15,130 -137,73 z"
       id="path3156" />
    <path
       d="m 20410,5690 c 0,-5 12,-10 26,-10 14,0 23,4 19,10 -3,6 -15,10 -26,10 -10,0 -19,-4 -19,-10 z"
       id="path3158" />
    <path
       d="m 20284,5655 c -17,-8 -79,-23 -138,-34 -60,-12 -112,-23 -116,-26 -4,-2 -50,-9 -101,-15 -109,-13 -373,4 -399,25 -8,7 -36,16 -61,19 -36,5 -50,3 -67,-11 -15,-12 -19,-22 -13,-32 12,-19 195,-48 381,-61 139,-9 164,-8 240,9 140,31 339,105 355,131 9,14 -44,11 -81,-5 z"
       id="path3160" />
    <path
       d="m 20561,5645 c 84,-46 662,-177 598,-136 -29,19 -221,81 -314,101 -49,12 -119,27 -155,35 -36,9 -85,15 -110,15 -44,-1 -45,-1 -19,-15 z"
       id="path3162" />
    <path
       d="m 11850,5611 c -69,-40 -349,-63 -585,-48 -216,14 -209,14 -213,-6 -6,-31 7,-66 31,-79 71,-39 505,-44 672,-7 106,24 202,54 221,70 10,8 26,7 62,-5 98,-33 310,-67 479,-78 95,-7 175,-9 178,-6 15,14 -10,38 -39,38 -17,0 -74,5 -126,10 -52,6 -138,14 -190,19 -94,8 -191,30 -343,77 -82,25 -122,29 -147,15 z"
       id="path3164" />
    <path
       d="m 14050,5602 c 0,-19 59,-61 105,-75 28,-9 95,-30 150,-48 107,-34 243,-47 479,-49 116,0 261,22 311,48 45,23 16,26 -77,7 -70,-15 -115,-16 -283,-10 -207,7 -301,20 -418,60 -68,23 -68,23 -33,29 19,4 46,4 60,0 14,-3 26,-2 26,3 0,5 -62,17 -137,26 -155,19 -183,20 -183,9 z"
       id="path3166" />
    <path
       d="m 12928,5568 c -78,-54 -55,-69 25,-18 52,33 82,34 177,5 25,-8 81,-23 125,-35 44,-12 97,-28 118,-36 53,-20 296,-20 323,1 18,13 16,14 -26,15 -25,0 -61,4 -80,10 -19,5 -87,14 -150,19 -65,5 -152,20 -200,34 -47,14 -125,28 -175,31 -90,7 -90,6 -137,-26 z"
       id="path3168" />
    <path
       d="m 620,5558 c 0,-40 108,-119 144,-105 27,10 18,36 -16,50 -18,8 -47,26 -64,40 -33,28 -64,35 -64,15 z"
       id="path3170" />
    <path
       d="m 5445,5501 c 13,-13 121,-51 146,-51 28,0 32,18 7,34 -28,17 -168,33 -153,17 z"
       id="path3172" />
    <path
       d="m 6600,5478 c -93,-29 -110,-36 -110,-47 0,-21 41,-22 77,-2 21,11 64,30 96,41 31,12 57,23 57,26 0,10 -59,1 -120,-18 z"
       id="path3174" />
    <path
       d="m 4535,5286 c -22,-8 -52,-17 -67,-20 -16,-4 -28,-13 -28,-21 0,-24 45,-28 101,-10 50,17 92,16 172,-1 21,-5 27,-3 27,10 0,38 -134,66 -205,42 z"
       id="path3176" />
    <path
       d="m 11625,5227 -80,-32 -190,2 c -145,1 -215,6 -295,21 -164,32 -214,36 -248,18 -16,-8 -59,-22 -97,-31 -54,-12 -76,-13 -102,-4 -38,12 -49,8 -40,-16 10,-26 152,-13 237,22 37,15 51,13 270,-22 191,-31 246,-37 305,-30 33,3 93,8 133,11 39,2 107,15 149,29 l 77,24 145,-34 c 149,-35 436,-64 454,-46 7,7 -65,19 -263,41 -114,13 -233,38 -290,59 -68,26 -68,26 -165,-12 z"
       id="path3178" />
    <path
       d="m 13110,5224 c -47,-7 -86,-13 -87,-13 -2,-1 -3,-6 -3,-12 0,-7 11,-9 28,-6 15,3 56,10 91,17 66,11 116,30 76,28 -11,0 -58,-6 -105,-14 z"
       id="path3180" />
    <path
       d="m 12802,5188 c -24,-5 -41,-12 -38,-15 8,-9 195,8 202,18 7,12 -108,10 -164,-3 z"
       id="path3182" />
    <path
       d="m 16170,5174 c -19,-9 -64,-25 -100,-36 -36,-11 -87,-31 -114,-45 -30,-15 -78,-28 -125,-33 -42,-5 -110,-18 -151,-30 -250,-71 -376,-91 -610,-93 -187,-2 -312,10 -385,36 -22,8 -60,18 -85,22 -25,4 -89,25 -144,48 l -98,40 -73,-36 c -84,-42 -207,-67 -324,-67 -42,0 -161,7 -266,15 -266,20 -367,37 -471,76 -33,12 -68,20 -77,16 -28,-11 -19,-36 17,-51 19,-8 37,-23 40,-33 9,-27 61,-49 158,-68 124,-24 203,-44 245,-62 21,-8 58,-21 83,-28 172,-47 246,-65 320,-75 47,-6 114,-18 150,-25 169,-36 405,-54 695,-55 38,0 65,-4 60,-8 -10,-8 -172,-61 -250,-81 -43,-11 -244,-45 -360,-62 -334,-46 -453,-55 -550,-39 -38,6 -106,15 -150,20 -44,5 -102,16 -130,24 -71,22 -161,31 -169,17 -17,-26 -99,-6 -220,55 -38,19 -77,34 -88,34 -11,0 -51,14 -88,30 -38,17 -83,33 -99,36 -27,6 -31,3 -45,-30 -13,-31 -27,-42 -88,-71 -40,-19 -98,-39 -128,-45 -89,-16 -356,-29 -397,-19 -55,12 -190,11 -199,-2 -3,-6 -1,-15 6,-19 23,-14 296,-35 455,-34 167,1 233,9 349,46 l 69,22 40,-23 c 38,-22 168,-62 267,-83 204,-42 543,-63 782,-48 276,17 307,22 618,95 77,18 230,50 330,70 89,17 227,48 295,67 22,6 69,11 104,12 47,1 67,5 74,17 19,30 0,63 -58,97 -30,18 -55,37 -55,42 0,5 -10,12 -22,16 -17,5 -27,-1 -49,-27 -27,-33 -30,-34 -106,-36 -43,-1 -121,-6 -173,-12 -166,-19 -301,-13 -630,28 -41,5 -88,14 -103,20 -16,6 -47,11 -70,11 -57,0 -260,36 -288,50 -11,7 -53,21 -91,31 -81,23 -148,54 -148,70 0,8 20,9 63,5 126,-14 221,-15 380,-6 151,9 193,16 347,60 44,12 49,11 146,-28 102,-40 171,-58 254,-66 25,-2 90,-11 145,-20 117,-19 378,-14 485,9 36,8 130,26 210,40 128,24 305,63 425,96 22,6 73,26 114,45 41,19 81,34 91,34 9,0 41,-13 71,-30 30,-16 95,-43 144,-59 50,-16 128,-46 175,-66 47,-20 108,-45 136,-55 28,-10 64,-25 81,-33 28,-15 166,-52 358,-98 125,-30 340,-33 495,-8 136,22 292,62 327,84 12,8 50,24 84,36 53,19 75,21 150,15 49,-4 123,-16 166,-27 49,-13 94,-18 120,-15 25,3 71,-2 115,-13 119,-30 309,-46 408,-33 103,13 53,26 -112,30 -101,2 -188,9 -228,18 -36,9 -85,17 -110,20 -87,7 -136,16 -260,45 -185,44 -232,43 -355,-10 -189,-80 -331,-106 -572,-103 -147,1 -186,5 -275,27 -56,15 -125,31 -153,37 -27,5 -72,18 -100,28 -27,10 -66,23 -85,30 -19,7 -60,23 -90,36 -56,23 -243,96 -335,130 -27,10 -63,28 -80,40 -42,31 -74,36 -115,18 z"
       id="path3184" />
    <path
       d="m 12718,5163 c 6,-2 18,-2 25,0 6,3 1,5 -13,5 -14,0 -19,-2 -12,-5 z"
       id="path3186" />
    <path
       d="m 12415,5150 c 3,-6 50,-10 106,-10 59,0 99,4 99,10 0,6 -42,10 -106,10 -67,0 -103,-4 -99,-10 z"
       id="path3188" />
    <path
       d="m 4635,5090 c -27,-10 -63,-19 -80,-19 -16,-1 -37,-5 -44,-10 -12,-8 -10,-12 11,-22 47,-21 211,31 193,62 -8,12 -22,11 -80,-11 z"
       id="path3190" />
    <path
       d="m 2229,4984 c -12,-14 -11,-16 5,-13 11,2 21,10 24,17 5,17 -13,15 -29,-4 z"
       id="path3192" />
    <path
       d="m 1747,4917 c -11,-29 -9,-43 4,-30 6,6 9,19 7,29 -3,18 -4,18 -11,1 z"
       id="path3194" />
    <path
       d="m 1704,4814 c -22,-53 -11,-66 14,-17 25,48 26,53 11,53 -5,0 -17,-16 -25,-36 z"
       id="path3196" />
    <path
       d="m 2625,4813 c -59,-13 -137,-54 -223,-116 -53,-38 -115,-78 -137,-87 -22,-9 -46,-25 -54,-34 -21,-25 -62,-19 -121,17 l -55,33 3,57 c 1,31 -2,57 -7,57 -9,0 -39,-76 -48,-123 -12,-63 51,-117 134,-117 74,0 148,30 248,101 88,61 92,63 172,70 90,9 108,15 171,67 43,36 54,65 26,76 -17,7 -77,6 -109,-1 z"
       id="path3198" />
    <path
       d="m 6215,4199 c -3,-15 -5,-40 -3,-55 l 4,-29 12,29 c 9,19 10,38 4,55 l -10,26 z"
       id="path3200" />
    <path
       d="m 6205,4068 c -9,-22 -2,-68 10,-71 14,-3 19,63 6,76 -7,7 -12,5 -16,-5 z"
       id="path3202" />
    <path
       d="m 5360,3990 c 0,-19 3,-21 12,-12 9,9 9,15 0,24 -9,9 -12,7 -12,-12 z"
       id="path3204" />
    <path
       d="m 6280,3945 c 0,-8 4,-15 10,-15 5,0 7,7 4,15 -4,8 -8,15 -10,15 -2,0 -4,-7 -4,-15 z"
       id="path3206" />
    <path
       d="m 5361,3880 c 0,-33 1,-34 11,-12 8,17 8,26 0,34 -9,9 -12,4 -11,-22 z"
       id="path3208" />
    <path
       d="m 6303,3771 c 3,-15 9,-51 13,-80 4,-28 11,-54 16,-57 6,-4 8,5 5,22 -3,16 -9,55 -12,87 -4,31 -11,57 -17,57 -6,0 -8,-12 -5,-29 z"
       id="path3210" />
    <path
       d="m 2245,3633 c -29,-32 -32,-48 -9,-57 26,-10 112,-7 119,4 12,20 -8,52 -41,66 -43,18 -39,19 -69,-13 z"
       id="path3212" />
    <path
       d="m 2098,3584 c -16,-8 -28,-19 -28,-24 0,-13 31,-17 64,-8 41,11 55,26 36,38 -21,13 -40,12 -72,-6 z"
       id="path3214" />
    <path
       d="m 5670,3525 c 0,-20 6,-48 14,-63 7,-15 17,-56 21,-92 8,-71 16,-92 50,-130 12,-14 29,-38 36,-55 10,-20 23,-31 40,-33 15,-2 39,-16 55,-33 15,-16 38,-29 50,-29 13,0 26,-5 29,-10 4,-6 25,-20 47,-31 22,-11 64,-46 94,-77 29,-31 56,-54 59,-51 9,10 -83,118 -192,224 -56,55 -109,116 -117,135 -8,19 -26,50 -40,69 -14,19 -33,59 -42,90 -16,56 -65,121 -91,121 -8,0 -13,-13 -13,-35 z m 99,-127 c 9,-15 12,-30 7,-35 -8,-8 -56,41 -56,58 0,20 34,4 49,-23 z m 51,-164 c 0,-8 -4,-12 -10,-9 -5,3 -10,10 -10,16 0,5 5,9 10,9 6,0 10,-7 10,-16 z"
       id="path3216" />
  </g>
</svg>
